<svg xmlns="http://www.w3.org/2000/svg" xmlns:xlink="http://www.w3.org/1999/xlink" width="500" zoomAndPan="magnify" viewBox="0 0 375 374.999991" height="500" preserveAspectRatio="xMidYMid meet" version="1.0"><defs><g/><clipPath id="1c6a70d53a"><path d="M 48.644531 225.328125 L 326.355469 225.328125 L 326.355469 257.191406 L 48.644531 257.191406 Z M 48.644531 225.328125 " clip-rule="nonzero"/></clipPath><clipPath id="8974848703"><path d="M 0.644531 0.328125 L 278.355469 0.328125 L 278.355469 32.191406 L 0.644531 32.191406 Z M 0.644531 0.328125 " clip-rule="nonzero"/></clipPath><clipPath id="b5c50044f4"><rect x="0" width="279" y="0" height="33"/></clipPath><clipPath id="1bcaa1849a"><path d="M 164.910156 97.210938 L 274.132812 97.210938 L 274.132812 206.433594 L 164.910156 206.433594 Z M 164.910156 97.210938 " clip-rule="nonzero"/></clipPath><clipPath id="0f474cdbc6"><path d="M 219.519531 97.210938 C 189.359375 97.210938 164.910156 121.660156 164.910156 151.820312 C 164.910156 181.984375 189.359375 206.433594 219.519531 206.433594 C 249.679688 206.433594 274.132812 181.984375 274.132812 151.820312 C 274.132812 121.660156 249.679688 97.210938 219.519531 97.210938 Z M 219.519531 97.210938 " clip-rule="nonzero"/></clipPath><clipPath id="1ef85426b2"><path d="M 0.910156 0.210938 L 110.132812 0.210938 L 110.132812 109.433594 L 0.910156 109.433594 Z M 0.910156 0.210938 " clip-rule="nonzero"/></clipPath><clipPath id="f0b47e282a"><path d="M 55.519531 0.210938 C 25.359375 0.210938 0.910156 24.660156 0.910156 54.820312 C 0.910156 84.984375 25.359375 109.433594 55.519531 109.433594 C 85.679688 109.433594 110.132812 84.984375 110.132812 54.820312 C 110.132812 24.660156 85.679688 0.210938 55.519531 0.210938 Z M 55.519531 0.210938 " clip-rule="nonzero"/></clipPath><clipPath id="b7f97d7a4b"><rect x="0" width="111" y="0" height="110"/></clipPath><clipPath id="b6ac8c4b7e"><path d="M 100.867188 189 L 267 189 L 267 211 L 100.867188 211 Z M 100.867188 189 " clip-rule="nonzero"/></clipPath><clipPath id="5958a838f2"><path d="M 168 212 L 195 212 L 195 215.023438 L 168 215.023438 Z M 168 212 " clip-rule="nonzero"/></clipPath><clipPath id="b76ef805be"><path d="M 268 195 L 274.117188 195 L 274.117188 197 L 268 197 Z M 268 195 " clip-rule="nonzero"/></clipPath><clipPath id="9093ac3348"><path d="M 137 108.523438 L 140 108.523438 L 140 111 L 137 111 Z M 137 108.523438 " clip-rule="nonzero"/></clipPath><clipPath id="48f801ee51"><rect x="0" width="159" y="0" height="33"/></clipPath><clipPath id="f24ad88a27"><path d="M 1 0.28125 L 8 0.28125 L 8 8 L 1 8 Z M 1 0.28125 " clip-rule="nonzero"/></clipPath><clipPath id="62510b6fa9"><path d="M 10 0.28125 L 18 0.28125 L 18 8 L 10 8 Z M 10 0.28125 " clip-rule="nonzero"/></clipPath><clipPath id="626b347bb7"><path d="M 21 0.28125 L 26 0.28125 L 26 8 L 21 8 Z M 21 0.28125 " clip-rule="nonzero"/></clipPath><clipPath id="2d8f5c3ae2"><path d="M 29 0.28125 L 35 0.28125 L 35 8 L 29 8 Z M 29 0.28125 " clip-rule="nonzero"/></clipPath><clipPath id="24d85253ba"><path d="M 38 0.28125 L 44 0.28125 L 44 8 L 38 8 Z M 38 0.28125 " clip-rule="nonzero"/></clipPath><clipPath id="846eb259bb"><path d="M 47 0.28125 L 49 0.28125 L 49 8 L 47 8 Z M 47 0.28125 " clip-rule="nonzero"/></clipPath><clipPath id="190819315e"><path d="M 51 0.28125 L 59 0.28125 L 59 8 L 51 8 Z M 51 0.28125 " clip-rule="nonzero"/></clipPath><clipPath id="6145aab155"><path d="M 62 0.28125 L 69 0.28125 L 69 8 L 62 8 Z M 62 0.28125 " clip-rule="nonzero"/></clipPath><clipPath id="e5cea54ae3"><path d="M 71 0.28125 L 78 0.28125 L 78 8 L 71 8 Z M 71 0.28125 " clip-rule="nonzero"/></clipPath><clipPath id="f5e24af7a3"><rect x="0" width="82" y="0" height="12"/></clipPath></defs><rect x="-37.5" width="450" fill="#ffffff" y="-37.499999" height="449.999989" fill-opacity="1"/><rect x="-37.5" width="450" fill="#ffffff" y="-37.499999" height="449.999989" fill-opacity="1"/><g clip-path="url(#1c6a70d53a)"><g transform="matrix(1, 0, 0, 1, 48, 225)"><g clip-path="url(#b5c50044f4)"><g clip-path="url(#8974848703)"><path fill="#ffffff" d="M 0.644531 0.328125 L 278.300781 0.328125 L 278.300781 32.191406 L 0.644531 32.191406 Z M 0.644531 0.328125 " fill-opacity="1" fill-rule="nonzero"/></g></g></g></g><g clip-path="url(#1bcaa1849a)"><g clip-path="url(#0f474cdbc6)"><g transform="matrix(1, 0, 0, 1, 164, 97)"><g clip-path="url(#b7f97d7a4b)"><g clip-path="url(#1ef85426b2)"><g clip-path="url(#f0b47e282a)"><path fill="#ffbd59" d="M 0.910156 0.210938 L 110.132812 0.210938 L 110.132812 109.433594 L 0.910156 109.433594 Z M 0.910156 0.210938 " fill-opacity="1" fill-rule="nonzero"/></g></g></g></g></g></g><path fill="#000000" d="M 120.054688 162.46875 C 120.082031 162.433594 120.09375 162.367188 120.105469 162.320312 C 120.292969 161.449219 120.421875 160.566406 120.710938 159.71875 C 120.835938 159.359375 120.925781 158.960938 121.203125 158.6875 C 123.566406 156.589844 126.976562 156.011719 129.355469 153.976562 C 129.984375 153.457031 130.472656 152.785156 130.96875 152.144531 C 136.863281 143.222656 146.183594 137.386719 156.675781 135.527344 C 163.261719 134.398438 164.480469 134.980469 167.832031 141.40625 C 168.449219 142.671875 170.589844 147.027344 170.105469 148.226562 C 170.007812 148.425781 169.789062 148.554688 169.566406 148.589844 C 169.25 148.652344 168.929688 148.695312 168.605469 148.726562 C 167.808594 148.804688 167 148.804688 166.199219 148.835938 C 164.113281 148.921875 162.011719 149.058594 159.925781 148.910156 C 159.382812 148.839844 158.847656 148.636719 158.550781 148.148438 C 158.097656 147.464844 157.988281 146.625 157.929688 145.820312 C 157.75 144.539062 159.785156 144.722656 160.699219 144.542969 C 160.980469 144.511719 161.261719 144.464844 161.476562 144.4375 C 161.671875 144.410156 161.890625 144.375 162.085938 144.332031 C 162.367188 144.269531 162.46875 144.222656 162.441406 144.183594 C 162.101562 143.996094 158.34375 143.898438 157.382812 144.347656 C 156.332031 144.859375 156.402344 146.15625 156.667969 147.304688 C 156.6875 147.394531 156.707031 147.519531 156.625 147.582031 C 150.078125 148.214844 143.679688 149.992188 137.28125 151.496094 C 136.730469 151.621094 136.082031 151.777344 135.648438 151.308594 C 134.921875 150.554688 135.753906 149.542969 136.375 149.007812 C 141.976562 144.628906 148.796875 141.828125 155.75 140.464844 C 158.582031 139.902344 161.773438 139.269531 164.410156 140.816406 C 164.816406 141.066406 165.1875 141.359375 165.515625 141.695312 C 165.609375 141.773438 166.039062 142.28125 165.972656 141.890625 C 165.839844 141.460938 165.625 141.054688 165.449219 140.640625 C 164.738281 139.160156 164.21875 137.382812 162.785156 136.445312 C 161.710938 135.792969 160.484375 135.71875 159.273438 135.816406 C 148.574219 136.800781 137.941406 142.378906 132.890625 152.15625 C 132.808594 152.347656 132.707031 152.550781 132.75 152.757812 C 132.824219 153.15625 133.273438 153.417969 133.671875 153.386719 C 137.949219 152.738281 142.21875 152 146.515625 151.472656 C 153.726562 150.5625 161 150.292969 168.214844 149.40625 C 168.300781 149.390625 168.464844 149.390625 168.480469 149.492188 C 168.503906 149.65625 168.265625 149.757812 168.304688 149.921875 C 168.460938 150.121094 169.484375 150.101562 169.8125 150.121094 C 169.980469 150.136719 171.316406 150.058594 171.046875 150.355469 C 170.589844 150.527344 170.078125 150.535156 169.589844 150.582031 C 157.335938 151.445312 145.027344 152.296875 132.894531 154.273438 C 132.460938 154.40625 132.21875 154.597656 131.941406 155.023438 C 131.882812 155.109375 131.808594 155.21875 131.820312 155.316406 C 131.828125 155.371094 131.886719 155.402344 131.960938 155.40625 C 133.664062 155.28125 135.339844 155.28125 137.054688 155.171875 C 137.273438 155.160156 137.484375 155.152344 137.707031 155.144531 C 138.03125 155.132812 138.332031 155.128906 138.527344 155.152344 C 138.734375 155.171875 138.820312 155.226562 138.707031 155.300781 C 134.597656 156.324219 130.335938 156.925781 126.289062 158.253906 C 126.066406 158.332031 125.902344 158.460938 125.808594 158.671875 C 125.535156 159.492188 125.324219 160.335938 125.070312 161.160156 C 125.027344 161.304688 124.96875 161.496094 125.039062 161.632812 C 125.082031 161.699219 125.175781 161.714844 125.253906 161.710938 C 125.40625 161.710938 125.558594 161.707031 125.714844 161.699219 C 126.785156 161.691406 127.179688 161.855469 128.371094 162.265625 C 128.691406 162.382812 129.007812 162.496094 129.328125 162.640625 C 129.554688 162.734375 129.761719 162.832031 129.929688 162.917969 C 130.144531 163.03125 130.285156 163.132812 130.304688 163.207031 C 130.316406 163.25 130.289062 163.285156 130.179688 163.300781 C 128.054688 163.472656 125.742188 163.773438 123.863281 164.78125 C 135.820312 168.027344 146.636719 174.671875 156.679688 181.894531 C 156.996094 182.078125 157.3125 182.171875 157.640625 181.957031 C 158.035156 181.726562 158.1875 181.316406 157.96875 180.910156 C 157.886719 180.738281 157.765625 180.570312 157.632812 180.425781 C 155.371094 178.0625 152.871094 175.953125 150.316406 173.914062 C 147.378906 171.5 144.253906 169.332031 141.121094 167.1875 C 140.398438 166.679688 139.675781 166.171875 138.96875 165.648438 C 138.800781 165.503906 138.40625 165.253906 138.496094 165.027344 C 138.527344 164.964844 138.636719 164.898438 138.726562 164.863281 C 138.800781 164.835938 138.875 164.824219 138.945312 164.808594 C 139.023438 164.796875 139.097656 164.789062 139.171875 164.789062 C 143.757812 165.058594 147.773438 167.601562 151.515625 170.066406 C 151.839844 170.28125 152.210938 170.398438 152.59375 170.449219 C 153.648438 170.609375 154.71875 170.640625 155.777344 170.792969 C 155.90625 170.800781 156.53125 170.925781 156.285156 171.117188 C 156.222656 171.148438 156.128906 171.148438 156.054688 171.148438 C 155.519531 171.121094 154.980469 171.089844 154.445312 171.058594 C 154.070312 171.058594 153.652344 170.964844 153.28125 170.996094 C 153.199219 171.007812 153.132812 171.027344 153.125 171.066406 C 153.113281 171.105469 153.160156 171.160156 153.222656 171.214844 C 157.429688 174.617188 161.355469 178.34375 165.070312 182.273438 C 165.640625 182.777344 166.535156 183.964844 167.34375 183.257812 C 167.53125 183.101562 167.640625 182.859375 167.574219 182.625 C 165.757812 177.761719 161.597656 174.394531 158.308594 170.546875 C 157.359375 169.386719 159.433594 170.820312 159.75 171.039062 C 161.4375 172.175781 162.871094 173.601562 164.300781 175.042969 C 164.507812 175.265625 164.824219 175.390625 165.113281 175.277344 C 165.90625 174.960938 165.839844 174.183594 165.53125 173.511719 C 165.117188 172.566406 164.605469 171.660156 164.007812 170.820312 C 161.503906 167.371094 158.230469 164.550781 155.628906 161.175781 C 155.578125 161.085938 155.554688 161.011719 155.589844 160.972656 C 155.632812 160.910156 155.777344 160.988281 155.847656 161.039062 C 158.757812 162.960938 161.320312 165.378906 163.621094 167.996094 C 163.984375 168.398438 164.351562 168.804688 164.722656 169.199219 C 165.226562 169.734375 165.832031 170.386719 166.621094 170.367188 C 167.066406 170.378906 167.554688 170.082031 167.441406 169.582031 C 164.855469 162.457031 157.15625 157.828125 150.992188 154.089844 C 150.855469 153.96875 150.785156 153.855469 150.847656 153.785156 C 150.898438 153.730469 151.015625 153.71875 151.125 153.707031 C 158.683594 154.273438 167.164062 162.328125 171.878906 167.84375 C 172.039062 167.828125 172.09375 167.5625 172.167969 167.4375 C 174.257812 162.929688 179.980469 160.273438 184.707031 162.003906 C 185.996094 162.460938 187.246094 163.070312 188.332031 163.90625 C 188.347656 163.929688 188.367188 163.960938 188.347656 163.984375 C 173.664062 159.328125 168.203125 177.695312 176.226562 187.441406 C 178.097656 190.019531 181.085938 191.695312 184.222656 192.046875 C 188.285156 192.546875 192.070312 190.714844 194.121094 187.121094 C 194.230469 186.9375 194.425781 186.867188 194.632812 186.925781 C 195.277344 186.910156 193.257812 190.042969 193.109375 190.308594 C 193.054688 190.410156 192.964844 190.542969 193.089844 190.621094 C 193.652344 190.753906 194.847656 189.136719 195.222656 188.613281 C 195.539062 188.140625 195.742188 187.625 196.039062 187.144531 C 196.078125 187.078125 196.128906 187.015625 196.195312 186.980469 C 196.316406 186.910156 196.472656 186.921875 196.617188 186.925781 C 196.671875 186.929688 196.730469 186.933594 196.773438 186.960938 C 196.859375 187.007812 196.832031 187.136719 196.789062 187.210938 C 196.363281 188.113281 195.972656 189.03125 195.457031 189.890625 C 195.382812 190.054688 195.070312 190.464844 195.332031 190.574219 C 195.574219 190.578125 195.820312 190.335938 195.980469 190.15625 C 196.835938 189.308594 197.476562 188.273438 198.035156 187.214844 C 198.082031 187.128906 198.128906 187.03125 198.210938 186.976562 C 198.390625 186.882812 198.910156 186.800781 198.878906 187.117188 C 198.824219 187.320312 198.691406 187.507812 198.613281 187.703125 C 198.351562 188.316406 198.074219 188.921875 197.71875 189.488281 C 197.5625 189.78125 197.324219 190.058594 197.230469 190.382812 C 197.226562 190.6875 197.667969 190.445312 197.78125 190.324219 C 198.964844 189.390625 200.332031 187.699219 200.230469 186.125 C 200.226562 186.054688 200.226562 185.960938 200.300781 185.9375 C 200.324219 185.921875 200.355469 185.917969 200.390625 185.914062 C 202.066406 185.742188 203.78125 185.644531 205.480469 185.570312 C 220.484375 184.914062 235.484375 184.125 250.472656 183.226562 C 251.855469 183.113281 253.238281 182.996094 254.609375 182.78125 C 255.25 182.625 256.71875 182.707031 256.714844 181.847656 C 256.726562 181.695312 256.601562 181.582031 256.46875 181.539062 C 256.332031 181.488281 256.171875 181.480469 256.058594 181.402344 C 255.917969 181.320312 255.855469 181.097656 256.027344 181.003906 C 256.609375 180.65625 257.136719 180.246094 257.382812 179.59375 C 257.519531 179.320312 257.382812 179.039062 257.230469 178.796875 C 257.1875 178.738281 257.136719 178.683594 257.082031 178.652344 C 256.972656 178.597656 256.851562 178.648438 256.757812 178.707031 C 256.417969 178.898438 256.089844 179.109375 255.730469 179.265625 C 255.484375 179.378906 255.1875 179.527344 254.914062 179.464844 C 254.667969 179.347656 255.164062 179.128906 255.210938 179.0625 C 257.101562 177.941406 258.710938 175.5625 257.605469 173.398438 C 257.53125 173.207031 257.550781 173.011719 257.601562 172.824219 C 258.019531 171.007812 258.390625 169.121094 258.140625 167.253906 C 257.972656 166.363281 257.335938 165.71875 256.609375 165.195312 C 256.371094 165.03125 256.136719 164.867188 255.890625 164.726562 C 255.84375 164.699219 255.734375 164.679688 255.757812 164.761719 C 255.835938 164.9375 256.035156 165.039062 256.175781 165.164062 C 256.488281 165.46875 256.863281 165.730469 257.101562 166.101562 C 257.183594 166.222656 257.226562 166.382812 257.125 166.503906 C 257.046875 166.609375 256.894531 166.695312 256.703125 166.761719 C 256.191406 166.953125 255.386719 167.035156 254.863281 167.085938 C 254.644531 167.105469 254.457031 167.132812 254.246094 167.152344 C 253.570312 167.207031 252.890625 167.242188 252.214844 167.289062 C 252.097656 167.300781 251.96875 167.300781 251.859375 167.355469 C 251.628906 167.484375 251.707031 167.890625 251.683594 168.175781 C 251.675781 168.273438 251.660156 168.390625 251.601562 168.460938 C 251.546875 168.523438 251.457031 168.546875 251.375 168.554688 C 245.339844 168.398438 239.246094 168.667969 233.238281 168.417969 C 232.976562 168.230469 233.226562 167.820312 232.929688 167.695312 C 229.878906 167.601562 226.527344 167.859375 223.515625 167.84375 L 223.511719 167.84375 C 219.675781 167.84375 212.679688 168.445312 209.546875 166.800781 C 208.699219 166.105469 212.011719 165.730469 212.507812 165.640625 C 212.566406 165.632812 212.632812 165.589844 212.605469 165.519531 C 212.589844 165.476562 212.535156 165.4375 212.488281 165.417969 C 212.101562 165.234375 211.691406 165.089844 211.328125 164.855469 C 211.195312 164.773438 210.65625 164.398438 211.089844 164.371094 C 212.367188 164.417969 213.644531 164.566406 214.921875 164.605469 C 217.96875 164.734375 221.011719 164.984375 224.0625 164.984375 C 224.402344 164.957031 225.589844 164.976562 225.683594 164.601562 C 225.785156 164.355469 225.609375 164.019531 225.445312 163.800781 C 224.808594 163.007812 224.082031 162.292969 223.359375 161.578125 C 219.226562 156.757812 213.652344 156.234375 207.722656 155.546875 C 207.292969 155.480469 206.847656 155.535156 206.421875 155.421875 C 205.480469 155.070312 204.558594 154.65625 203.613281 154.3125 C 195.109375 150.988281 185.984375 149.949219 176.976562 148.933594 C 176.222656 148.796875 175.410156 148.546875 174.941406 147.894531 C 171.902344 143.53125 169.664062 138.519531 165.933594 134.683594 C 165.765625 134.515625 165.535156 134.285156 165.914062 134.234375 C 177.6875 133.476562 189.652344 134.050781 201.117188 136.972656 C 204.289062 137.828125 206.964844 139.828125 209.722656 141.527344 C 212.949219 143.621094 216.027344 145.945312 219.222656 148.085938 C 219.394531 148.195312 219.550781 148.292969 219.6875 148.375 C 220.199219 148.683594 220.394531 148.765625 220.359375 148.675781 C 216.308594 144.992188 207.632812 138.054688 201.527344 136.003906 C 182.75 131.78125 158.300781 130.164062 141.074219 139.933594 C 136.066406 142.871094 132.5625 146.980469 129.253906 151.953125 C 128.984375 152.332031 128.652344 152.636719 128.28125 152.90625 C 126.457031 154.125 124.347656 154.859375 122.457031 155.96875 C 120.882812 156.816406 120.539062 158.765625 120.214844 160.390625 C 120.09375 161.015625 120 161.648438 119.941406 162.285156 C 119.933594 162.351562 119.925781 162.429688 119.96875 162.484375 C 119.980469 162.511719 120.023438 162.507812 120.054688 162.46875 Z M 156.699219 167.957031 C 157.136719 167.046875 158.921875 167.160156 158.898438 168.277344 L 158.898438 168.28125 C 158.800781 168.816406 158.140625 169.199219 157.617188 169.066406 C 157.140625 168.925781 156.472656 168.5 156.699219 167.957031 Z M 149.503906 159.578125 C 147.851562 159.707031 146.195312 159.792969 144.539062 159.917969 C 144.390625 159.9375 144.175781 159.917969 144.082031 160.050781 C 144.050781 160.097656 144.042969 160.164062 144.042969 160.222656 C 143.988281 161.535156 144.175781 162.859375 144.390625 164.15625 C 144.425781 164.34375 144.480469 164.621094 144.472656 164.796875 C 144.46875 164.871094 144.453125 164.929688 144.425781 164.949219 C 143.914062 164.832031 143.726562 161.160156 143.722656 160.550781 L 143.722656 160.546875 C 143.722656 158.777344 144.183594 155.503906 145.289062 154.210938 C 145.328125 154.171875 145.367188 154.15625 145.390625 154.171875 C 145.429688 154.195312 145.421875 154.289062 145.382812 154.425781 C 145.242188 154.949219 144.875 155.640625 144.714844 156.175781 C 144.519531 156.757812 144.296875 157.351562 144.234375 157.96875 C 144.269531 158.25 144.710938 158.109375 144.898438 158.097656 C 146.414062 157.921875 147.914062 157.558594 149.441406 157.484375 C 149.894531 157.535156 150.054688 157.984375 150.070312 158.4375 C 150.070312 158.875 149.96875 159.46875 149.503906 159.578125 Z M 224.554688 172.121094 C 224.636719 169.683594 228.585938 170.742188 228.339844 172.761719 C 228.21875 173.257812 227.769531 173.613281 227.304688 173.773438 C 226.152344 174.175781 224.535156 173.507812 224.554688 172.128906 Z M 209.960938 175.46875 C 210.257812 174.917969 210.757812 174.476562 211.3125 174.15625 C 213.394531 172.886719 216.503906 172.9375 218.09375 174.953125 C 218.203125 175.101562 218.292969 175.257812 218.363281 175.417969 C 218.753906 176.328125 218.445312 177.347656 217.664062 177.972656 C 217.148438 178.460938 216.511719 178.777344 215.949219 179.191406 C 215.914062 179.230469 215.910156 179.273438 215.949219 179.300781 C 218.621094 179.601562 221.292969 180.136719 223.941406 180.636719 C 224.695312 180.886719 222.183594 180.820312 221.933594 180.828125 C 221.605469 180.828125 220.933594 180.8125 220.738281 180.832031 C 220.714844 180.832031 220.703125 180.828125 220.679688 180.828125 L 220.671875 180.828125 C 217.269531 180.792969 213.429688 180.894531 210.621094 178.691406 C 209.683594 177.882812 209.347656 176.5625 209.960938 175.46875 Z M 174.386719 177.632812 C 174.378906 177.246094 174.308594 176.949219 174.675781 176.960938 C 174.78125 176.96875 174.898438 176.996094 175 177.023438 C 176.101562 177.316406 177.308594 177.335938 178.339844 177.832031 C 178.394531 177.859375 178.480469 177.90625 178.484375 177.96875 C 178.46875 178.089844 178.296875 178.070312 178.203125 178.066406 C 177.910156 178.046875 177.613281 178.035156 177.292969 178.015625 C 177.023438 178 176.703125 177.980469 176.402344 177.96875 L 176.398438 177.96875 C 175.898438 177.972656 175.148438 177.96875 174.621094 177.933594 C 174.457031 177.925781 174.386719 177.792969 174.386719 177.632812 Z M 176.914062 180.675781 C 176.582031 180.703125 176.242188 180.738281 175.914062 180.695312 L 175.910156 180.695312 C 175.609375 180.644531 174.722656 180.804688 174.710938 180.515625 C 174.734375 180.246094 175.535156 180.328125 175.742188 180.316406 C 176.492188 180.316406 177.230469 180.25 177.960938 180.082031 C 178.070312 180.0625 178.171875 180.035156 178.285156 180.027344 C 178.378906 180.019531 178.480469 180.050781 178.433594 180.144531 C 178.417969 180.171875 178.386719 180.199219 178.351562 180.21875 C 178.109375 180.367188 177.847656 180.476562 177.574219 180.550781 C 177.359375 180.609375 177.136719 180.652344 176.914062 180.675781 Z M 180.902344 181.707031 C 179.910156 183.113281 179.148438 184.792969 177.921875 185.976562 L 177.914062 185.976562 C 177.847656 185.992188 177.777344 185.917969 177.746094 185.847656 C 177.71875 185.789062 177.730469 185.726562 177.761719 185.667969 C 178.359375 184.441406 179.140625 183.300781 179.996094 182.234375 C 180.199219 182.007812 180.515625 181.683594 180.753906 181.515625 C 180.855469 181.449219 180.9375 181.398438 180.976562 181.457031 C 181.003906 181.515625 180.949219 181.644531 180.902344 181.707031 Z M 182.257812 180.570312 L 182.25 180.570312 C 181.804688 180.628906 181.460938 180.429688 181.21875 180.109375 C 181.117188 179.988281 180.976562 179.847656 180.9375 179.6875 C 180.921875 179.636719 180.925781 179.582031 180.957031 179.566406 C 181.023438 179.542969 181.097656 179.644531 181.148438 179.691406 C 181.414062 179.980469 181.71875 180.214844 182.101562 180.328125 C 182.164062 180.347656 182.230469 180.359375 182.289062 180.390625 C 182.433594 180.460938 182.410156 180.550781 182.257812 180.570312 Z M 182.460938 185.3125 L 182.460938 185.308594 C 182.472656 185.109375 182.503906 184.886719 182.53125 184.613281 C 182.554688 184.410156 182.582031 184.191406 182.621094 183.996094 C 182.667969 183.773438 182.722656 183.554688 182.84375 183.386719 C 182.902344 183.300781 182.960938 183.308594 182.992188 183.402344 C 183.054688 184.023438 182.703125 187.015625 182.460938 185.3125 Z M 184.246094 187.820312 C 184.257812 188.078125 183.878906 188.074219 183.6875 187.9375 C 183.628906 187.894531 183.601562 187.835938 183.585938 187.765625 C 183.34375 185.890625 183.628906 184.003906 183.957031 182.15625 C 183.964844 182.105469 183.980469 182.011719 184.035156 182.003906 C 184.078125 181.996094 184.121094 182.058594 184.125 182.109375 C 184.316406 183.988281 184.179688 185.921875 184.25 187.816406 Z M 184.261719 178.8125 C 184.136719 178.878906 184.042969 178.742188 184.011719 178.636719 C 183.929688 178.425781 183.917969 178.171875 183.75 178 C 183.6875 177.933594 183.578125 177.882812 183.503906 177.957031 C 183.335938 178.117188 183.328125 178.480469 183.183594 178.675781 C 183.128906 178.753906 183.03125 178.886719 182.941406 178.800781 C 182.761719 178.519531 183.214844 177.851562 183.152344 177.566406 C 182.933594 177.019531 182.105469 176.953125 181.742188 177.292969 C 181.617188 177.386719 181.546875 177.554688 181.414062 177.636719 C 181.371094 177.65625 181.332031 177.644531 181.3125 177.605469 C 181.226562 177.167969 181.933594 176.75 182.34375 176.746094 L 182.347656 176.746094 C 182.730469 176.746094 183.09375 176.953125 183.367188 177.21875 C 183.683594 177.535156 184.113281 177.832031 184.285156 178.265625 C 184.335938 178.40625 184.417969 178.710938 184.261719 178.8125 Z M 183.519531 176.203125 L 183.523438 176.203125 C 183.546875 176.207031 183.558594 176.226562 183.589844 176.238281 C 183.640625 176.265625 183.78125 176.34375 183.675781 176.386719 C 183.589844 176.40625 183.535156 176.304688 183.480469 176.261719 C 183.457031 176.242188 183.507812 176.210938 183.519531 176.203125 Z M 185.496094 179.140625 C 185.429688 179.101562 185.347656 179.066406 185.328125 178.996094 C 185.3125 178.941406 185.328125 178.878906 185.355469 178.824219 C 185.5 178.464844 185.832031 178.378906 186.183594 178.40625 L 186.191406 178.40625 C 188.019531 178.597656 190.070312 179.191406 191.082031 180.863281 C 191.171875 181.027344 191.230469 181.207031 191.21875 181.394531 C 191.210938 181.625 191.066406 181.832031 190.824219 181.714844 C 189.960938 181.25 189.113281 180.75 188.261719 180.269531 C 187.796875 180.015625 187.296875 179.84375 186.800781 179.667969 C 186.414062 179.535156 186.027344 179.394531 185.664062 179.21875 C 185.605469 179.195312 185.550781 179.171875 185.496094 179.140625 Z M 186.105469 180.839844 C 186.078125 180.789062 186.074219 180.730469 186.113281 180.722656 L 186.117188 180.722656 C 186.144531 180.71875 186.175781 180.738281 186.207031 180.765625 C 186.832031 181.289062 187.378906 181.9375 188.023438 182.453125 C 188.476562 182.855469 188.984375 183.164062 189.519531 183.429688 C 189.652344 183.496094 189.785156 183.558594 189.914062 183.625 C 189.996094 183.664062 190.042969 183.746094 190.003906 183.832031 C 189.769531 184.339844 188.703125 183.652344 188.421875 183.429688 C 187.511719 182.699219 186.796875 181.773438 186.105469 180.839844 Z M 192.71875 178.226562 L 192.71875 178.234375 C 192.691406 181.246094 191.882812 184.578125 189.476562 186.554688 C 189.425781 186.589844 189.375 186.613281 189.34375 186.582031 C 189.320312 186.558594 189.332031 186.503906 189.363281 186.457031 C 191.957031 183.375 192.628906 178.867188 191.484375 175.042969 C 191.34375 174.621094 191.1875 174.75 190.886719 174.917969 C 189.867188 175.507812 188.894531 176.195312 187.796875 176.632812 C 187.722656 176.660156 187.566406 176.714844 187.523438 176.632812 C 187.492188 176.566406 187.585938 176.484375 187.644531 176.445312 C 188.601562 175.789062 189.417969 174.960938 190.304688 174.210938 C 190.488281 174.046875 190.703125 173.882812 190.84375 173.683594 C 191 173.488281 190.988281 173.234375 190.847656 173.039062 C 190.75 172.878906 190.621094 172.757812 190.449219 172.832031 C 190.015625 173.0625 189.613281 173.359375 189.203125 173.636719 C 188.957031 173.792969 188.722656 173.988281 188.457031 174.109375 C 188.265625 174.171875 188.308594 174.039062 188.402344 173.933594 C 188.929688 173.371094 189.40625 172.769531 189.875 172.15625 C 190.148438 171.855469 190.046875 171.636719 189.820312 171.34375 C 189.726562 171.199219 189.570312 171.195312 189.460938 171.316406 C 189.277344 171.480469 189.097656 171.652344 188.917969 171.824219 C 187.890625 172.796875 186.960938 173.875 185.945312 174.847656 C 185.894531 174.890625 185.871094 174.90625 185.847656 174.890625 C 185.746094 174.824219 185.925781 174.425781 186.234375 173.898438 C 186.917969 172.730469 188.226562 170.925781 188.511719 170.667969 C 188.621094 170.546875 188.835938 170.398438 188.808594 170.214844 C 188.765625 170.054688 188.632812 169.925781 188.53125 169.796875 C 188.410156 169.660156 188.273438 169.53125 188.140625 169.410156 C 186.203125 167.648438 183.085938 166.429688 180.65625 167.804688 C 180.59375 167.878906 180.671875 167.9375 180.746094 167.953125 C 181.167969 168.039062 181.71875 168 181.867188 168.476562 C 182.292969 169.597656 182.429688 170.804688 182.589844 171.988281 C 182.683594 173.007812 182.667969 174.03125 182.699219 175.054688 C 182.683594 175.390625 182.683594 175.675781 182.972656 175.910156 C 183.0625 175.996094 182.980469 176.042969 182.875 176.035156 C 182.28125 175.878906 181.726562 176.214844 181.277344 176.59375 C 181.125 176.730469 181.039062 176.65625 181.167969 176.507812 C 181.402344 176.242188 181.714844 176.070312 182.023438 175.90625 C 182.152344 175.839844 182.355469 175.8125 182.417969 175.660156 C 182.066406 173.433594 181.328125 171.25 180.570312 169.121094 C 180.46875 168.835938 180.339844 168.5625 180.292969 168.261719 C 180.273438 168.15625 180.289062 168.039062 180.226562 168 C 180 167.925781 179.453125 168.308594 179.195312 168.453125 C 178.269531 169.046875 178.414062 168.886719 178.859375 169.792969 C 178.972656 169.925781 181.558594 175.566406 180.429688 174.0625 C 179.585938 172.640625 179 171.027344 178.007812 169.699219 C 177.949219 169.617188 177.867188 169.554688 177.765625 169.59375 C 177.394531 169.738281 177.101562 170.167969 176.859375 170.464844 C 175.78125 171.785156 175.238281 173.390625 174.664062 174.972656 C 174.636719 175.046875 174.609375 175.136719 174.636719 175.214844 C 174.671875 175.324219 174.800781 175.371094 174.910156 175.40625 C 175.519531 175.59375 176.132812 175.777344 176.742188 175.96875 C 176.894531 176.019531 177.054688 176.066406 177.183594 176.164062 C 177.246094 176.214844 177.226562 176.238281 177.15625 176.238281 C 176.359375 176.207031 175.535156 175.945312 174.742188 175.777344 C 174.570312 175.75 174.414062 175.613281 174.453125 175.421875 C 174.878906 172.828125 175.820312 170.179688 177.738281 168.316406 C 184.914062 161.945312 192.949219 170.335938 192.71875 178.226562 Z M 202.421875 156.964844 C 206.9375 153.886719 217.617188 157.964844 221.207031 161.476562 C 221.664062 161.996094 222 162.738281 221.640625 163.316406 C 220.789062 164.492188 217.980469 164.285156 216.632812 164.304688 L 216.628906 164.304688 C 212.125 163.941406 206.289062 164.113281 202.628906 160.871094 C 201.410156 159.800781 200.996094 157.980469 202.421875 156.964844 Z M 195.054688 164.914062 C 197.921875 163.914062 200.933594 163.019531 203.90625 162.585938 C 203.910156 162.59375 203.90625 162.609375 203.898438 162.617188 C 203.851562 162.691406 203.746094 162.769531 203.613281 162.84375 C 200.980469 163.949219 198.148438 164.652344 195.375 165.316406 C 195.132812 165.371094 194.984375 165.433594 195.097656 165.707031 C 196.199219 168.453125 197.1875 171.394531 197.554688 174.296875 C 197.550781 174.289062 197.535156 174.257812 197.523438 174.222656 C 195.527344 168.785156 192.855469 162.910156 187.460938 160.097656 C 184.660156 158.8125 180.898438 158.71875 177.894531 159.390625 C 176.792969 159.644531 175.960938 159.976562 175.25 160.429688 C 175.121094 160.5 174.933594 160.644531 174.777344 160.695312 C 174.601562 160.761719 174.488281 160.652344 174.542969 160.476562 C 175.863281 156.972656 180.273438 156.183594 183.609375 155.980469 L 183.617188 155.980469 C 188.9375 155.800781 192.289062 160.652344 194.671875 164.808594 C 194.761719 164.972656 194.890625 164.984375 195.054688 164.914062 Z M 171.46875 152.101562 C 178.089844 151.570312 185.003906 152.136719 191.246094 154.453125 C 191.242188 154.507812 191.167969 154.507812 191.101562 154.507812 C 186.203125 153.597656 181.003906 153.351562 176.066406 153.167969 L 176.058594 153.167969 C 174.253906 153.175781 172.660156 153.140625 171.011719 153.183594 C 170.644531 153.242188 170.777344 153.800781 170.765625 154.0625 C 170.746094 157.132812 170.53125 160.292969 170.027344 163.289062 C 170 163.292969 169.960938 163.226562 169.9375 163.167969 C 169.90625 163.09375 169.890625 163.011719 169.882812 162.929688 C 169.648438 160.875 169.332031 158.816406 169.535156 156.746094 C 169.589844 156.070312 169.679688 155.40625 169.777344 154.738281 C 169.835938 154.332031 169.898438 153.933594 169.960938 153.527344 C 169.976562 153.4375 169.988281 153.332031 169.941406 153.257812 C 169.90625 153.203125 169.847656 153.171875 169.773438 153.160156 C 168.5 153.09375 167.171875 153.300781 165.910156 153.152344 C 165.792969 153.117188 165.914062 153.027344 165.988281 153.007812 C 167.074219 152.734375 168.191406 152.574219 169.296875 152.394531 C 169.421875 152.375 169.535156 152.351562 169.660156 152.328125 C 169.945312 152.261719 170.230469 152.304688 170.390625 152.082031 C 170.445312 152 170.496094 151.824219 170.527344 151.65625 C 170.554688 151.570312 170.546875 151.273438 170.695312 151.371094 C 170.769531 151.496094 170.726562 151.703125 170.753906 151.847656 C 170.769531 152.046875 170.875 152.109375 171.042969 152.113281 C 171.183594 152.117188 171.34375 152.105469 171.46875 152.101562 Z M 171.46875 152.101562 " fill-opacity="1" fill-rule="nonzero"/><g clip-path="url(#b6ac8c4b7e)"><path fill="#000000" d="M 266.003906 198.601562 C 265.972656 198.59375 265.9375 198.585938 265.90625 198.582031 C 263.410156 198.089844 260.9375 197.722656 258.425781 197.285156 C 257.285156 197.125 255.320312 196.871094 254.257812 196.566406 C 253.835938 196.445312 253.558594 196.316406 253.53125 196.183594 C 253.527344 196.152344 253.53125 196.121094 253.554688 196.089844 C 253.574219 196.058594 253.609375 196.03125 253.675781 196 C 253.714844 195.984375 253.757812 195.96875 253.808594 195.953125 C 256.820312 194.9375 260.101562 195.238281 263.210938 194.722656 C 263.292969 194.695312 263.371094 194.640625 263.363281 194.566406 C 263.359375 194.503906 263.296875 194.464844 263.246094 194.4375 C 263.144531 194.382812 263.03125 194.363281 262.921875 194.351562 C 260.613281 194.039062 258.28125 193.945312 255.953125 193.917969 C 247.261719 193.835938 238.570312 194.339844 229.921875 195.230469 C 229.824219 195.242188 229.730469 195.25 229.628906 195.253906 C 229.445312 195.269531 229.203125 195.292969 229.035156 195.261719 C 229.011719 195.257812 228.996094 195.253906 228.980469 195.25 C 228.941406 195.234375 228.960938 195.214844 229.019531 195.195312 C 229.039062 195.191406 229.0625 195.183594 229.082031 195.179688 C 231.773438 194.542969 234.546875 194.148438 237.25 193.550781 C 237.316406 193.535156 237.34375 193.519531 237.316406 193.5 C 237.105469 193.402344 236.875 193.347656 236.644531 193.269531 C 235.503906 192.921875 234.316406 192.632812 233.238281 192.105469 C 231.882812 191.511719 230.621094 190.742188 229.480469 189.792969 C 229.351562 189.695312 229.210938 189.632812 229.054688 189.601562 C 220.292969 189.847656 211.515625 190.105469 202.757812 190.460938 C 202.511719 190.496094 202.339844 190.753906 202.179688 190.929688 C 197.597656 196.074219 189.3125 196.027344 182.820312 196.503906 C 179.816406 196.640625 174.441406 196.8125 172.238281 196.648438 C 170.894531 196.546875 170.734375 196.324219 173.003906 195.890625 C 173.289062 195.835938 173.527344 195.796875 173.820312 195.746094 C 174.761719 195.566406 175.703125 195.371094 176.65625 195.265625 C 176.683594 195.253906 176.734375 195.234375 176.71875 195.199219 C 176.707031 195.152344 176.59375 195.125 176.542969 195.117188 C 174.398438 194.753906 172.269531 194.316406 170.167969 193.746094 C 169.234375 193.472656 168.277344 193.300781 167.308594 193.324219 C 160.945312 193.585938 154.589844 194.25 148.332031 195.433594 C 144.9375 196.035156 141.484375 196.554688 138.035156 196.523438 C 137.773438 196.511719 137.582031 196.484375 137.515625 196.433594 C 137.453125 196.382812 137.496094 196.3125 137.695312 196.214844 C 137.773438 196.171875 137.894531 196.121094 137.992188 196.082031 C 141.800781 194.835938 145.765625 194.128906 149.691406 193.351562 C 149.832031 193.324219 149.980469 193.3125 150.089844 193.222656 C 150.164062 193.160156 150.132812 193.058594 150.046875 193.019531 C 149.972656 192.980469 149.871094 192.972656 149.773438 192.972656 C 148.699219 192.984375 147.628906 192.992188 146.554688 193.03125 C 133.816406 193.480469 121.148438 195.128906 108.398438 195.457031 C 105.925781 195.558594 103.449219 195.617188 100.980469 195.75 C 100.9375 195.761719 100.914062 195.789062 100.917969 195.824219 C 100.921875 195.847656 100.941406 195.871094 100.960938 195.882812 C 107.222656 196.441406 113.585938 196.1875 119.878906 196.46875 C 123.132812 196.574219 126.40625 196.742188 129.597656 197.417969 C 130.03125 197.519531 130.480469 197.609375 130.875 197.824219 C 131.1875 197.992188 131.054688 198.160156 130.710938 198.296875 C 130.410156 198.414062 129.992188 198.492188 129.714844 198.546875 C 122.628906 199.671875 115.414062 199.476562 108.257812 199.648438 C 107.734375 199.65625 107.207031 199.625 106.683594 199.671875 C 106.613281 199.679688 106.53125 199.683594 106.492188 199.714844 C 106.476562 199.730469 106.460938 199.746094 106.464844 199.765625 C 106.464844 199.789062 106.484375 199.808594 106.511719 199.824219 C 106.546875 199.847656 106.597656 199.859375 106.640625 199.863281 C 106.980469 199.910156 107.320312 199.953125 107.664062 199.992188 C 116.660156 200.6875 125.640625 201.695312 134.652344 202.191406 C 150.402344 202.296875 166.652344 201.496094 182.3125 202.722656 C 186.238281 203.09375 184.511719 203.496094 181.921875 203.78125 C 165.867188 205.386719 149.386719 205.054688 133.3125 206.75 C 131.460938 207.007812 129.789062 207.449219 132.964844 208 C 148.351562 209.90625 164.289062 209.914062 179.789062 210.078125 L 179.796875 210.078125 C 200.699219 210.007812 221.582031 208.867188 242.429688 207.378906 C 244.164062 207.238281 245.90625 207.09375 247.636719 206.90625 C 255.746094 206.105469 215.519531 206.261719 213.746094 206.070312 C 206.734375 205.949219 204.410156 205.664062 209.867188 205.242188 C 221.546875 204.5625 233.261719 204.503906 244.933594 203.625 C 245.046875 203.617188 245.148438 203.609375 245.257812 203.59375 C 245.394531 203.570312 245.574219 203.53125 245.582031 203.453125 C 245.585938 203.421875 245.566406 203.390625 245.527344 203.367188 C 245.515625 203.359375 245.515625 203.359375 245.507812 203.359375 C 245.46875 203.339844 245.425781 203.332031 245.378906 203.324219 C 234.269531 202.460938 222.886719 203.257812 211.851562 202.300781 C 211.847656 202.238281 211.9375 202.21875 211.992188 202.203125 C 212.425781 202.125 212.859375 202.042969 213.300781 201.992188 C 225.367188 200.953125 237.535156 202.046875 249.574219 200.671875 C 252.433594 200.367188 255.320312 200.175781 258.171875 199.902344 C 258.199219 199.886719 258.1875 199.867188 258.148438 199.84375 C 258.011719 199.777344 257.714844 199.742188 257.515625 199.714844 C 257.398438 199.695312 257.304688 199.675781 257.191406 199.65625 C 256.75 199.578125 256.144531 199.589844 255.785156 199.363281 C 255.757812 199.339844 255.78125 199.324219 255.835938 199.316406 C 259.210938 199.117188 262.703125 199.445312 266.019531 198.777344 C 266.085938 198.757812 266.132812 198.726562 266.125 198.691406 C 266.121094 198.65625 266.066406 198.621094 266.003906 198.601562 Z M 158.648438 198.160156 C 158.214844 198.238281 157.78125 198.289062 157.585938 197.839844 C 157.382812 197.3125 158.738281 197.046875 159.234375 196.933594 C 160.113281 196.75 161.574219 196.582031 162.296875 196.574219 L 162.300781 196.574219 C 166.566406 196.460938 160.058594 198.007812 158.648438 198.160156 Z M 204.082031 200.886719 C 201.707031 202.378906 199.625 198.859375 202.308594 198.621094 L 202.316406 198.621094 C 202.753906 198.605469 203.167969 198.714844 203.539062 198.90625 C 203.84375 199.0625 204.140625 199.332031 204.320312 199.632812 C 204.609375 200.089844 204.550781 200.601562 204.082031 200.886719 Z M 224.90625 197.195312 C 224.644531 197.808594 223.738281 198.007812 223.121094 197.980469 L 223.113281 197.980469 C 221.851562 197.953125 220.527344 197.527344 219.761719 196.496094 C 219.195312 195.734375 218.878906 194.507812 219.914062 194.015625 C 220.425781 193.769531 221.082031 193.789062 221.621094 193.976562 C 222.933594 194.410156 224.320312 195.171875 224.894531 196.472656 C 224.988281 196.707031 224.996094 197.003906 224.90625 197.195312 Z M 224.90625 197.195312 " fill-opacity="1" fill-rule="nonzero"/></g><path fill="#000000" d="M 213.125 147.867188 C 214.167969 147.976562 215.207031 148.089844 216.253906 148.195312 C 216.328125 148.203125 216.429688 148.214844 216.484375 148.164062 C 216.53125 148.109375 216.476562 148.046875 216.429688 148.007812 C 216.199219 147.824219 215.964844 147.644531 215.707031 147.484375 C 204.230469 139.921875 192.757812 134.117188 178.632812 134.585938 L 178.625 134.585938 C 175.035156 134.566406 171.289062 134.859375 167.710938 135.386719 C 167.640625 135.398438 167.566406 135.417969 167.53125 135.46875 C 167.484375 135.539062 167.523438 135.617188 167.582031 135.675781 C 171.230469 139.21875 174.25 143.332031 176.945312 147.632812 C 177.003906 147.71875 177.074219 147.792969 177.164062 147.824219 C 177.253906 147.859375 177.367188 147.847656 177.460938 147.839844 C 179.621094 147.667969 181.78125 147.546875 183.9375 147.371094 C 193.664062 146.609375 203.433594 146.714844 213.125 147.867188 Z M 213.125 147.867188 " fill-opacity="1" fill-rule="nonzero"/><path fill="#000000" d="M 250.613281 159.558594 C 250.652344 159.5 250.652344 159.421875 250.652344 159.351562 C 250.691406 158.496094 250.941406 157.480469 250.214844 156.878906 C 249.460938 156.210938 248.472656 155.894531 247.570312 155.480469 C 245.804688 154.777344 244 154.191406 242.179688 153.65625 C 228.09375 149.894531 213.304688 147.789062 198.734375 147.976562 L 198.730469 147.976562 C 194.949219 148.078125 191.589844 148.175781 187.929688 148.332031 C 187.703125 148.34375 187.433594 148.332031 187.214844 148.390625 C 187.148438 148.410156 187.074219 148.441406 187.082031 148.460938 C 187.082031 148.464844 187.082031 148.464844 187.085938 148.46875 C 194.433594 149.328125 201.78125 150.441406 209.015625 152.050781 C 214.476562 153.40625 220.296875 154.550781 224.90625 158.011719 C 225.261719 158.28125 225.527344 158.421875 225.964844 158.238281 C 232.457031 156.050781 241.027344 156.851562 247.632812 158.402344 C 248.585938 158.667969 249.511719 159.023438 250.355469 159.554688 C 250.433594 159.601562 250.550781 159.644531 250.613281 159.558594 Z M 250.613281 159.558594 " fill-opacity="1" fill-rule="nonzero"/><path fill="#000000" d="M 252.453125 184.308594 C 252.449219 184.164062 252.4375 184.03125 252.414062 183.890625 C 252.402344 183.828125 252.382812 183.761719 252.34375 183.710938 C 252.238281 183.59375 252.054688 183.640625 251.914062 183.667969 C 248 184.550781 243.984375 184.652344 240 184.929688 C 227.289062 185.679688 214.578125 186.382812 201.863281 187.023438 C 201.671875 187.039062 201.429688 187.011719 201.359375 187.234375 C 201.265625 187.539062 201.175781 187.835938 201.050781 188.125 C 200.496094 189.472656 199.632812 190.640625 198.660156 191.714844 C 198.613281 191.761719 198.554688 191.851562 198.597656 191.898438 C 198.640625 191.945312 198.738281 191.917969 198.796875 191.894531 C 200.011719 191.425781 201.0625 190.613281 202 189.726562 C 202.101562 189.632812 202.214844 189.542969 202.351562 189.503906 C 206.542969 189.21875 210.757812 189.164062 214.957031 188.996094 C 219.664062 188.792969 224.375 188.722656 229.082031 188.492188 C 229.21875 188.488281 229.414062 188.484375 229.535156 188.523438 C 229.617188 188.550781 229.6875 188.59375 229.777344 188.660156 C 232.417969 190.554688 235.601562 192.390625 238.917969 192.4375 L 238.925781 192.4375 C 240.796875 192.363281 242.605469 191.800781 244.425781 191.417969 C 248.265625 190.976562 252.519531 188.589844 252.453125 184.308594 Z M 231.707031 187.816406 C 231.683594 187.660156 231.792969 187.5625 231.933594 187.511719 C 232.035156 187.476562 232.15625 187.464844 232.246094 187.46875 L 232.25 187.46875 C 233.21875 187.566406 231.929688 188.585938 231.707031 187.816406 Z M 236.394531 188.761719 C 236.230469 188.863281 236.054688 188.921875 235.871094 188.929688 L 235.863281 188.929688 C 235.542969 188.957031 235.160156 188.75 235.179688 188.394531 C 235.1875 188.273438 235.253906 188.148438 235.339844 188.0625 C 235.6875 187.691406 236.316406 187.523438 236.707031 187.902344 C 236.773438 187.964844 236.820312 188.042969 236.832031 188.128906 C 236.871094 188.386719 236.574219 188.636719 236.394531 188.761719 Z M 241.6875 189.109375 C 241.507812 189.183594 241.339844 189.226562 241.175781 189.226562 L 241.171875 189.226562 C 239.726562 189.117188 241.402344 187.488281 242.109375 188.261719 C 242.167969 188.335938 242.203125 188.4375 242.203125 188.527344 C 242.203125 188.820312 241.945312 188.996094 241.6875 189.109375 Z M 241.6875 189.109375 " fill-opacity="1" fill-rule="nonzero"/><path fill="#000000" d="M 208.570312 128.589844 C 208.339844 128.816406 204.667969 132.273438 206.035156 131.449219 C 213.078125 125.945312 220.289062 120.617188 228.21875 116.445312 C 228.355469 116.378906 228.566406 116.246094 228.695312 116.367188 C 228.804688 116.488281 228.683594 116.644531 228.570312 116.730469 C 228.363281 116.890625 228.152344 117.039062 227.9375 117.1875 C 222.148438 121.078125 216.410156 125.292969 212.394531 131.105469 C 211.652344 132.234375 209.648438 134.945312 210.398438 136.300781 C 211.214844 137.367188 212.796875 136.53125 213.882812 136.273438 C 214.101562 136.214844 214.292969 136.21875 214.25 136.519531 C 213.574219 141.027344 221.175781 134.019531 222.695312 133.40625 C 222.910156 133.292969 223.179688 133.402344 222.96875 133.644531 C 222.605469 134.058594 222.15625 134.386719 221.765625 134.773438 C 220.28125 136.109375 217.574219 139.269531 217.410156 141.25 C 217.367188 143.027344 219.730469 142.414062 220.925781 142.074219 C 221.460938 141.925781 221.984375 141.75 222.519531 141.621094 C 222.71875 141.554688 222.945312 141.660156 222.828125 141.894531 C 222.605469 142.265625 222.3125 142.589844 222.027344 142.917969 C 221.699219 143.285156 221.359375 143.644531 221.054688 144.035156 C 220.914062 144.214844 220.753906 144.40625 220.71875 144.636719 C 220.625 145.121094 221.640625 145.738281 222.050781 145.746094 C 223.242188 145.882812 225.304688 143.117188 226.078125 142.207031 C 226.695312 141.398438 228.21875 139.589844 226.898438 138.796875 C 226.707031 138.710938 226.492188 138.730469 226.289062 138.773438 C 226.046875 138.828125 225.8125 138.902344 225.566406 138.964844 C 223.972656 139.421875 222.410156 140.195312 220.722656 140.160156 C 220.285156 140.144531 219.914062 139.871094 219.679688 139.484375 C 219.476562 139.160156 219.464844 138.707031 219.65625 138.367188 C 220.820312 136.152344 222.921875 134.597656 224.75 132.957031 C 224.917969 132.828125 225.0625 132.65625 225.25 132.5625 C 225.316406 132.535156 225.390625 132.5625 225.453125 132.601562 C 226.378906 133.238281 227.636719 133.273438 228.4375 132.757812 C 229.4375 132.179688 229.953125 130.894531 229.472656 129.546875 C 229.457031 129.46875 229.464844 129.398438 229.507812 129.339844 C 230.847656 128.378906 232.222656 127.453125 233.527344 126.445312 C 233.625 126.355469 233.703125 126.25 233.707031 126.117188 C 233.710938 125.8125 233.355469 125.628906 233.101562 125.773438 C 231.558594 126.449219 230.085938 127.285156 228.613281 128.101562 C 228.535156 128.136719 228.460938 128.164062 228.394531 128.175781 C 228.070312 128.238281 227.820312 128.078125 227.449219 127.988281 C 227.226562 127.929688 226.867188 127.921875 226.613281 127.972656 C 226.269531 128.035156 225.9375 128.148438 225.648438 128.328125 C 225.359375 128.503906 225.117188 128.742188 224.929688 129.019531 C 224.710938 129.347656 224.566406 129.730469 224.503906 130.15625 C 224.480469 130.300781 224.441406 130.445312 224.34375 130.550781 C 224.289062 130.609375 224.222656 130.660156 224.144531 130.703125 C 222.382812 131.535156 220.597656 132.46875 218.609375 132.488281 L 218.601562 132.488281 C 217.5 132.542969 216.28125 132.027344 216.003906 130.90625 C 215.757812 129.539062 216.394531 128.25 217.191406 127.125 C 218.308594 125.574219 219.910156 124.210938 221.285156 122.980469 C 225.109375 119.679688 229.304688 116.84375 233.542969 114.121094 C 233.890625 113.804688 233.625 113.425781 233.34375 113.191406 C 233.265625 113.132812 233.167969 113.105469 233.074219 113.121094 C 227.304688 115.496094 221.445312 118.058594 216.386719 121.757812 C 213.636719 123.925781 211.152344 126.167969 208.570312 128.589844 Z M 213.75 134.507812 C 213.617188 134.726562 213.449219 134.929688 213.253906 135.09375 C 213.015625 135.296875 212.730469 135.449219 212.421875 135.496094 L 212.414062 135.496094 C 212.109375 135.523438 211.761719 135.40625 211.566406 135.179688 C 210.910156 134.421875 212.664062 133.183594 213.359375 133.375 C 213.636719 133.453125 213.859375 133.710938 213.890625 133.996094 C 213.917969 134.179688 213.84375 134.355469 213.75 134.507812 Z M 216.683594 133.671875 L 216.691406 133.671875 C 217.347656 133.679688 218.054688 134.167969 218.171875 134.828125 C 218.1875 135.433594 217.457031 135.765625 216.953125 135.882812 C 216.375 136 215.742188 135.644531 215.523438 135.09375 C 215.28125 134.40625 216.042969 133.71875 216.683594 133.671875 Z M 216.683594 133.671875 " fill-opacity="1" fill-rule="nonzero"/><path fill="#000000" d="M 231.375 165.597656 C 232.386719 166.253906 233.613281 166.5 234.800781 166.644531 C 237.136719 166.910156 239.484375 167.050781 241.832031 167.132812 L 241.835938 167.132812 C 244.3125 167.023438 246.921875 167.378906 249.296875 166.503906 C 249.796875 166.308594 250.167969 165.871094 250.339844 165.414062 C 250.726562 164.433594 250.496094 163.121094 250.402344 162.09375 C 250.332031 161.480469 250.148438 160.808594 249.855469 160.449219 C 249.609375 160.125 249.253906 159.886719 248.730469 159.660156 C 243.792969 157.835938 238.378906 158.03125 233.191406 157.835938 C 230.882812 157.828125 228.535156 158.109375 226.375 158.953125 C 226.074219 159.058594 226.121094 159.21875 226.265625 159.417969 C 226.472656 159.71875 226.671875 160.023438 226.902344 160.308594 C 228.394531 162.0625 229.46875 164.234375 231.375 165.597656 Z M 226.734375 159.625 C 226.667969 159.585938 226.601562 159.542969 226.542969 159.488281 C 226.484375 159.425781 226.4375 159.367188 226.480469 159.308594 C 226.761719 159.046875 228.675781 159.011719 229.324219 158.964844 L 229.332031 158.964844 C 229.792969 159.003906 230.25 159.050781 230.664062 159.089844 C 230.722656 159.09375 230.8125 159.117188 230.816406 159.183594 C 230.808594 159.238281 230.742188 159.253906 230.695312 159.261719 C 230.585938 159.285156 230.472656 159.308594 230.363281 159.328125 C 230.214844 159.355469 230.066406 159.375 229.921875 159.394531 C 229.285156 159.46875 228.664062 159.625 228.046875 159.761719 C 227.53125 159.886719 227.1875 159.96875 226.734375 159.625 Z M 229.070312 161.679688 C 232.40625 160.777344 247.722656 160.4375 249.722656 162.695312 L 249.722656 162.699219 C 249.675781 162.941406 249.367188 162.867188 249.175781 162.835938 C 242.667969 161.160156 235.921875 161.773438 229.277344 161.808594 C 229.1875 161.804688 229.03125 161.789062 229.070312 161.679688 Z M 229.070312 161.679688 " fill-opacity="1" fill-rule="nonzero"/><path fill="#000000" d="M 107.605469 191.253906 C 108.652344 191.347656 111.359375 191.429688 111.914062 191.625 C 111.941406 191.648438 111.804688 191.652344 111.78125 191.65625 C 110.164062 191.796875 108.535156 191.875 106.917969 192.042969 C 106.589844 192.0625 106.148438 192.050781 105.875 192.171875 C 105.796875 192.199219 105.703125 192.292969 105.730469 192.363281 C 105.746094 192.410156 105.820312 192.445312 105.917969 192.476562 C 109.78125 193.21875 113.726562 193.421875 117.652344 193.570312 L 117.660156 193.570312 C 123.636719 193.484375 129.984375 193.269531 135.5 190.824219 C 135.496094 190.78125 135.441406 190.761719 135.386719 190.753906 C 135.359375 190.746094 135.328125 190.746094 135.300781 190.746094 C 134.820312 190.742188 134.34375 190.691406 133.867188 190.613281 C 131.492188 190.253906 129.484375 188.675781 127.089844 188.375 C 126.363281 188.261719 126.8125 188.816406 126.296875 189.15625 C 126.207031 189.210938 126.113281 189.246094 126.011719 189.273438 C 119.292969 190.476562 112.40625 189.71875 105.664062 190.660156 C 105.601562 190.667969 105.542969 190.679688 105.484375 190.691406 C 105.25 190.753906 105.140625 190.8125 105.128906 190.863281 C 105.03125 191.027344 106.453125 191.179688 107.605469 191.253906 Z M 107.605469 191.253906 " fill-opacity="1" fill-rule="nonzero"/><path fill="#000000" d="M 194.929688 132.953125 C 195.007812 132.949219 195.074219 132.910156 195.140625 132.867188 C 197.429688 131.375 199.425781 129.460938 201.675781 127.921875 C 201.777344 127.875 201.859375 127.851562 201.914062 127.890625 C 202.046875 128.03125 201.792969 128.355469 201.703125 128.476562 C 201.355469 128.921875 201 129.359375 200.660156 129.808594 C 200.390625 130.15625 200.132812 130.53125 199.96875 130.957031 C 199.78125 131.453125 199.863281 131.882812 200.46875 131.957031 L 200.472656 131.957031 C 202 131.902344 206.175781 128.367188 207.390625 127.203125 C 207.441406 127.152344 207.410156 127.097656 207.328125 127.117188 C 206.363281 127.539062 205.539062 128.246094 204.625 128.773438 C 204.429688 128.898438 204.132812 128.988281 204.101562 128.664062 C 204.097656 128.148438 204.652344 127.730469 204.929688 127.359375 C 208.148438 123.980469 211.566406 120.78125 215.085938 117.722656 C 215.382812 117.441406 215.539062 117.164062 215.238281 116.761719 C 215.0625 116.515625 214.816406 116.304688 214.515625 116.445312 C 213.589844 116.878906 212.753906 117.484375 211.949219 118.109375 C 210.5 118.945312 199.378906 130.039062 199.035156 128.0625 C 199.15625 127.203125 200.125 126.480469 200.574219 125.757812 C 200.632812 125.667969 200.691406 125.5625 200.664062 125.453125 C 200.628906 125.296875 200.445312 125.1875 200.289062 125.222656 C 200.164062 125.257812 200.070312 125.375 199.972656 125.460938 C 199.792969 125.644531 199.625 125.839844 199.464844 126.039062 C 198.007812 127.96875 196.375 129.765625 194.992188 131.746094 C 194.835938 131.996094 194.433594 132.570312 194.667969 132.839844 C 194.730469 132.902344 194.832031 132.957031 194.929688 132.953125 Z M 209.484375 121.21875 C 209.761719 121.023438 211.125 119.519531 211.273438 119.964844 C 211.128906 120.554688 209.96875 121.46875 209.429688 121.804688 C 209.367188 121.84375 209.261719 121.828125 209.21875 121.765625 C 209.117188 121.640625 209.324219 121.375 209.484375 121.21875 Z M 209.484375 121.21875 " fill-opacity="1" fill-rule="nonzero"/><g clip-path="url(#5958a838f2)"><path fill="#000000" d="M 193.746094 212.964844 C 193.289062 212.863281 192.914062 212.792969 192.351562 212.707031 C 186.894531 212.019531 181.367188 212.035156 175.878906 212.257812 C 174.015625 212.429688 172.09375 212.421875 170.261719 212.867188 C 169.894531 212.957031 169.535156 213.0625 169.179688 213.199219 C 169.035156 213.257812 168.816406 213.34375 168.789062 213.515625 C 168.808594 213.75 169.292969 213.890625 169.527344 213.976562 C 173.367188 214.976562 177.632812 214.917969 181.574219 215.023438 L 181.582031 215.023438 C 183.75 214.972656 185.742188 214.976562 187.851562 214.84375 C 189.394531 214.78125 198.011719 213.980469 193.746094 212.964844 Z M 193.746094 212.964844 " fill-opacity="1" fill-rule="nonzero"/></g><path fill="#000000" d="M 106.070312 189.273438 C 108.722656 189.3125 111.394531 189.195312 114.050781 189.222656 L 114.058594 189.222656 C 115.847656 189.144531 118.875 189.167969 120.980469 189.007812 C 123.285156 188.832031 125.304688 188.589844 126.101562 187.8125 C 127.347656 185.9375 121.113281 180.976562 119.28125 179.457031 C 117.847656 178.347656 116.386719 177.277344 114.875 176.285156 C 114.699219 176.191406 114.617188 176.246094 114.765625 176.375 C 117.457031 178.921875 120.65625 181.136719 122.699219 184.292969 C 124.195312 186.746094 121.933594 187.117188 120.007812 187.355469 C 115.742188 187.839844 111.457031 188.195312 107.207031 188.835938 C 106.828125 188.90625 106.417969 188.929688 106.054688 189.085938 C 106.019531 189.101562 105.980469 189.125 105.972656 189.167969 C 105.964844 189.207031 106.011719 189.253906 106.070312 189.273438 Z M 106.070312 189.273438 " fill-opacity="1" fill-rule="nonzero"/><path fill="#000000" d="M 108.652344 167.882812 C 121.285156 166.246094 133.957031 173.304688 145.171875 178.3125 C 147.324219 179.332031 149.457031 180.40625 151.574219 181.5 C 151.640625 181.535156 151.710938 181.5625 151.78125 181.589844 C 151.84375 181.609375 151.914062 181.636719 151.972656 181.617188 C 152.011719 181.605469 152.015625 181.558594 152 181.523438 C 151.988281 181.503906 151.972656 181.480469 151.960938 181.460938 C 140.398438 173.960938 126.9375 167.886719 113.019531 167.175781 L 113.011719 167.175781 C 111.53125 167.160156 110.019531 167.253906 108.582031 167.628906 C 108.542969 167.636719 108.5 167.652344 108.46875 167.671875 C 108.402344 167.710938 108.363281 167.777344 108.371094 167.816406 C 108.398438 167.886719 108.507812 167.886719 108.652344 167.882812 Z M 108.652344 167.882812 " fill-opacity="1" fill-rule="nonzero"/><path fill="#000000" d="M 132.664062 142.042969 C 134.023438 141.417969 134.976562 139.988281 134.96875 138.476562 L 134.96875 138.472656 C 134.90625 136.242188 132.882812 134.960938 130.90625 135.53125 C 129.3125 135.988281 128.445312 137.519531 129.117188 139.457031 C 129.726562 140.890625 130.882812 143.011719 132.664062 142.042969 Z M 131.882812 138.269531 C 132.34375 138.097656 132.992188 138.417969 133.1875 138.898438 C 133.511719 139.652344 132.410156 140.527344 131.730469 140.589844 L 131.722656 140.589844 C 131.132812 140.644531 130.703125 140.152344 130.664062 139.601562 C 130.632812 138.933594 131.3125 138.492188 131.882812 138.269531 Z M 131.882812 138.269531 " fill-opacity="1" fill-rule="nonzero"/><path fill="#000000" d="M 120.191406 174.089844 C 119.296875 173.972656 120.007812 174.734375 121.296875 175.75 C 122.335938 176.5625 123.519531 177.386719 124.636719 178.132812 C 125.566406 178.75 127.644531 180.097656 128.1875 180.257812 C 129.421875 180.886719 130.769531 181.398438 132.140625 181.566406 L 132.148438 181.566406 C 134.496094 181.1875 126.761719 177.203125 125.941406 176.769531 C 124.378906 175.933594 120.484375 174.078125 120.191406 174.089844 Z M 120.191406 174.089844 " fill-opacity="1" fill-rule="nonzero"/><path fill="#000000" d="M 132.832031 128.050781 C 136.972656 129.902344 138.71875 123.433594 134.105469 123.136719 L 134.097656 123.136719 C 133.257812 123.105469 132.554688 123.460938 132.117188 123.992188 C 131.082031 125.203125 131.3125 127.335938 132.832031 128.050781 Z M 132.832031 128.050781 " fill-opacity="1" fill-rule="nonzero"/><path fill="#000000" d="M 144.292969 190.363281 L 144.296875 190.363281 C 146.542969 190.34375 146.144531 189.117188 144.703125 188.097656 C 143.050781 186.996094 141.167969 186.191406 139.171875 186.054688 C 138.847656 186.050781 138.664062 186.277344 138.632812 186.589844 C 138.605469 186.867188 138.671875 187.179688 138.804688 187.429688 C 139.769531 189.234375 142.296875 190.300781 144.292969 190.363281 Z M 144.292969 190.363281 " fill-opacity="1" fill-rule="nonzero"/><path fill="#000000" d="M 249.761719 123.707031 C 251.484375 123.125 251.828125 121.070312 250.679688 119.777344 C 250.261719 119.3125 249.632812 119.003906 248.917969 119.027344 L 248.910156 119.027344 C 245.183594 119.128906 246.28125 124.808594 249.761719 123.707031 Z M 249.761719 123.707031 " fill-opacity="1" fill-rule="nonzero"/><path fill="#000000" d="M 251.878906 189.285156 C 251.726562 189.417969 251.988281 189.503906 252.101562 189.53125 C 252.375 189.585938 252.660156 189.566406 252.9375 189.585938 C 256.320312 189.734375 259.703125 189.683594 263.089844 189.578125 L 263.09375 189.578125 C 264.5625 189.433594 277.347656 189.171875 272.84375 188.957031 C 271.832031 188.917969 270.894531 188.898438 269.734375 188.875 C 263.792969 188.78125 257.769531 188.558594 251.878906 189.285156 Z M 251.878906 189.285156 " fill-opacity="1" fill-rule="nonzero"/><path fill="#000000" d="M 203.679688 131.597656 C 203.484375 131.871094 203.667969 131.957031 203.847656 131.808594 C 208.183594 128.609375 212.125 124.921875 216.226562 121.433594 C 216.710938 121.015625 217.191406 120.589844 217.660156 120.15625 C 217.753906 120.066406 219.320312 118.839844 218.917969 118.859375 L 218.914062 118.863281 C 213.523438 122.679688 208.210938 126.765625 203.679688 131.597656 Z M 203.679688 131.597656 " fill-opacity="1" fill-rule="nonzero"/><path fill="#000000" d="M 249.726562 139.285156 C 249.214844 142.015625 253.554688 142.511719 253.621094 139.703125 L 253.621094 139.695312 C 253.640625 138.605469 252.769531 137.835938 251.761719 137.769531 C 250.789062 137.675781 249.878906 138.273438 249.726562 139.285156 Z M 249.726562 139.285156 " fill-opacity="1" fill-rule="nonzero"/><path fill="#000000" d="M 141.710938 184.433594 C 142.726562 184.957031 143.769531 185.457031 144.929688 185.480469 L 144.9375 185.480469 C 146.136719 185.394531 144.515625 184.164062 144.1875 183.898438 C 142.578125 182.664062 140.769531 181.707031 138.820312 181.152344 C 138.707031 181.117188 138.582031 181.074219 138.460938 181.066406 C 138.117188 181.035156 137.992188 181.292969 138.148438 181.582031 C 139.027344 182.847656 140.394531 183.679688 141.710938 184.433594 Z M 141.710938 184.433594 " fill-opacity="1" fill-rule="nonzero"/><path fill="#000000" d="M 249.453125 114.386719 C 250.46875 114.359375 251.210938 113.613281 251.253906 112.621094 C 251.304688 111.644531 250.683594 110.703125 249.636719 110.5625 L 249.628906 110.5625 C 246.699219 110.28125 246.667969 114.480469 249.453125 114.386719 Z M 249.453125 114.386719 " fill-opacity="1" fill-rule="nonzero"/><path fill="#000000" d="M 156.101562 189.871094 C 154.988281 189.027344 153.671875 188.414062 152.269531 188.335938 C 151.761719 188.347656 151.8125 188.929688 151.96875 189.273438 C 152.019531 189.398438 152.082031 189.496094 152.160156 189.597656 C 152.949219 190.660156 154.363281 191.289062 155.640625 191.445312 L 155.648438 191.445312 C 157.242188 191.5625 157.132812 190.6875 156.101562 189.871094 Z M 156.101562 189.871094 " fill-opacity="1" fill-rule="nonzero"/><path fill="#000000" d="M 206.960938 120.601562 C 207.867188 120.527344 208.585938 119.8125 208.539062 118.824219 L 208.539062 118.816406 C 208.328125 116.582031 204.761719 116.8125 205.128906 119.25 C 205.273438 120.144531 206.09375 120.6875 206.960938 120.601562 Z M 206.960938 120.601562 " fill-opacity="1" fill-rule="nonzero"/><path fill="#000000" d="M 225.648438 160.503906 C 225.171875 159.96875 224.472656 159.738281 223.761719 159.742188 L 223.753906 159.742188 C 223.503906 159.753906 222.890625 159.730469 222.824219 159.914062 C 222.816406 159.953125 222.84375 160 222.882812 160.046875 C 224.542969 161.640625 226.136719 163.375 228.097656 164.59375 C 228.367188 164.796875 228.601562 164.652344 228.542969 164.324219 C 228.511719 164.167969 228.441406 164.019531 228.359375 163.882812 C 227.558594 162.679688 226.683594 161.511719 225.648438 160.503906 Z M 225.648438 160.503906 " fill-opacity="1" fill-rule="nonzero"/><path fill="#000000" d="M 148.140625 121.027344 C 149 120.941406 149.566406 120.222656 149.53125 119.390625 C 149.511719 118.535156 148.875 117.785156 147.957031 117.753906 L 147.949219 117.753906 C 145.542969 117.753906 145.796875 121.363281 148.140625 121.027344 Z M 148.140625 121.027344 " fill-opacity="1" fill-rule="nonzero"/><path fill="#000000" d="M 236.308594 124.375 C 237.03125 124.996094 238.3125 124.925781 238.8125 124.046875 C 240.082031 121.589844 235.875 120.363281 235.808594 123.195312 L 235.808594 123.203125 C 235.78125 123.683594 235.984375 124.109375 236.308594 124.375 Z M 236.308594 124.375 " fill-opacity="1" fill-rule="nonzero"/><path fill="#000000" d="M 255.085938 113.894531 C 255.40625 113.640625 255.625 113.25 255.625 112.742188 L 255.625 112.734375 C 255.53125 110.132812 251.433594 111.042969 252.660156 113.457031 C 253.136719 114.308594 254.351562 114.484375 255.085938 113.894531 Z M 255.085938 113.894531 " fill-opacity="1" fill-rule="nonzero"/><path fill="#000000" d="M 253.453125 165.207031 C 254.195312 165 254.90625 164.652344 255.398438 164.050781 C 257.269531 161.667969 255.90625 157.972656 252.960938 157.328125 C 252.804688 157.300781 252.738281 157.382812 252.867188 157.496094 C 253.195312 157.777344 253.53125 158.042969 253.820312 158.367188 C 254.753906 159.386719 255.144531 160.726562 255.191406 162.078125 L 255.191406 162.085938 C 255.273438 163.554688 254.53125 164.722656 253.085938 165.109375 C 252.945312 165.152344 252.734375 165.214844 252.597656 165.269531 C 252.515625 165.304688 252.460938 165.335938 252.460938 165.363281 C 252.472656 165.472656 253.328125 165.242188 253.453125 165.207031 Z M 253.453125 165.207031 " fill-opacity="1" fill-rule="nonzero"/><path fill="#000000" d="M 213.144531 114.1875 C 213.453125 113.964844 213.667969 113.542969 213.664062 113.085938 L 213.664062 113.078125 C 213.683594 111.144531 210.742188 110.984375 210.675781 112.992188 C 210.667969 113.234375 210.710938 113.496094 210.808594 113.695312 C 211.210938 114.546875 212.429688 114.726562 213.144531 114.1875 Z M 213.144531 114.1875 " fill-opacity="1" fill-rule="nonzero"/><path fill="#000000" d="M 239.015625 132.867188 L 239.015625 132.863281 C 239 132.421875 238.78125 132.03125 238.492188 131.796875 C 237.832031 131.246094 236.765625 131.382812 236.359375 132.179688 C 235.289062 134.351562 238.925781 135.328125 239.015625 132.867188 Z M 239.015625 132.867188 " fill-opacity="1" fill-rule="nonzero"/><path fill="#000000" d="M 147.058594 125.492188 C 147.328125 125.265625 147.5 124.882812 147.480469 124.480469 L 147.480469 124.472656 C 147.496094 122.777344 144.75 122.585938 144.777344 124.5 C 144.78125 124.71875 144.828125 124.960938 144.917969 125.144531 C 145.289062 125.957031 146.433594 126.046875 147.058594 125.492188 Z M 147.058594 125.492188 " fill-opacity="1" fill-rule="nonzero"/><path fill="#000000" d="M 247.664062 145.058594 C 247.9375 144.847656 248.117188 144.464844 248.097656 144.0625 L 248.097656 144.054688 C 248.023438 142.066406 245.089844 142.457031 245.4375 144.324219 C 245.621094 145.347656 246.910156 145.671875 247.664062 145.058594 Z M 247.664062 145.058594 " fill-opacity="1" fill-rule="nonzero"/><path fill="#000000" d="M 112.519531 180.625 C 112.414062 180.714844 112.421875 180.90625 112.492188 181.023438 C 113.15625 182.179688 114.695312 183 116.046875 183.019531 L 116.054688 183.019531 C 116.675781 182.949219 116.796875 182.691406 116.359375 182.230469 C 115.5625 181.402344 114.515625 180.894531 113.417969 180.601562 C 113.226562 180.550781 113.027344 180.507812 112.824219 180.523438 C 112.703125 180.527344 112.59375 180.558594 112.519531 180.625 Z M 112.519531 180.625 " fill-opacity="1" fill-rule="nonzero"/><path fill="#000000" d="M 125.90625 148.320312 C 126.449219 148.832031 127.453125 148.867188 127.886719 148.1875 C 128.992188 146.335938 125.746094 145.179688 125.542969 147.417969 L 125.542969 147.425781 C 125.511719 147.773438 125.660156 148.097656 125.90625 148.320312 Z M 125.90625 148.320312 " fill-opacity="1" fill-rule="nonzero"/><g clip-path="url(#b76ef805be)"><path fill="#000000" d="M 273.699219 195.289062 C 272.582031 194.90625 271.367188 194.988281 270.203125 195.0625 C 269.933594 195.085938 268.460938 195.273438 268.835938 195.703125 C 269.269531 195.953125 269.789062 196.027344 270.292969 196.082031 C 270.675781 196.117188 271.050781 196.125 271.421875 196.140625 L 271.425781 196.140625 C 272.003906 196.175781 275.136719 195.929688 273.699219 195.289062 Z M 273.699219 195.289062 " fill-opacity="1" fill-rule="nonzero"/></g><path fill="#000000" d="M 161.949219 126.859375 L 161.949219 126.851562 C 161.945312 126.148438 161.433594 125.648438 160.78125 125.636719 C 160.183594 125.613281 159.628906 126.027344 159.550781 126.644531 C 159.3125 128.324219 161.867188 128.601562 161.949219 126.859375 Z M 161.949219 126.859375 " fill-opacity="1" fill-rule="nonzero"/><g clip-path="url(#9093ac3348)"><path fill="#000000" d="M 138.96875 110.585938 C 139.210938 110.402344 139.371094 110.066406 139.367188 109.707031 L 139.367188 109.699219 C 139.378906 108.085938 136.816406 108.132812 137.03125 109.835938 C 137.097656 110.796875 138.269531 111.132812 138.96875 110.585938 Z M 138.96875 110.585938 " fill-opacity="1" fill-rule="nonzero"/></g><path fill="#000000" d="M 254.105469 154.222656 C 254.988281 154.042969 255.175781 152.984375 254.605469 152.371094 C 254.414062 152.160156 254.101562 152.015625 253.773438 152.027344 L 253.765625 152.027344 C 252.191406 152.179688 252.578125 154.574219 254.105469 154.222656 Z M 254.105469 154.222656 " fill-opacity="1" fill-rule="nonzero"/><path fill="#000000" d="M 156.617188 125.664062 C 156.84375 125.507812 157.011719 125.199219 157.019531 124.863281 L 157.019531 124.855469 C 157.019531 123.390625 154.757812 123.40625 154.859375 124.925781 C 154.929688 125.773438 155.964844 126.144531 156.617188 125.664062 Z M 156.617188 125.664062 " fill-opacity="1" fill-rule="nonzero"/><path fill="#000000" d="M 252.613281 159.585938 C 251.769531 160.78125 251.117188 162.097656 251.097656 163.613281 L 251.097656 163.621094 C 251.175781 164.570312 251.894531 163.1875 252.015625 162.921875 C 252.355469 162.160156 252.5625 161.355469 252.765625 160.550781 C 252.820312 160.347656 252.953125 159.691406 252.78125 159.542969 C 252.730469 159.515625 252.667969 159.535156 252.613281 159.585938 Z M 252.613281 159.585938 " fill-opacity="1" fill-rule="nonzero"/><path fill="#000000" d="M 221.855469 128.320312 L 221.847656 128.320312 C 221.347656 128.292969 220.894531 128.652344 220.738281 129.105469 C 220.636719 129.394531 220.667969 129.707031 220.886719 129.929688 C 221.003906 130.050781 221.21875 130.183594 221.414062 130.179688 C 222.121094 130.164062 223.078125 129.332031 222.5 128.628906 C 222.347656 128.4375 222.101562 128.320312 221.855469 128.320312 Z M 221.855469 128.320312 " fill-opacity="1" fill-rule="nonzero"/><path fill="#000000" d="M 143.117188 130.464844 C 143.644531 130.929688 144.527344 130.714844 144.652344 129.976562 C 144.824219 128.6875 142.902344 128.46875 142.804688 129.753906 L 142.804688 129.761719 C 142.800781 130.042969 142.933594 130.308594 143.117188 130.464844 Z M 143.117188 130.464844 " fill-opacity="1" fill-rule="nonzero"/><path fill="#000000" d="M 238.644531 143.890625 L 238.652344 143.890625 C 238.929688 143.882812 239.191406 143.738281 239.324219 143.546875 C 239.644531 143.105469 239.511719 142.390625 239 142.152344 C 237.589844 141.574219 237.128906 143.835938 238.644531 143.890625 Z M 238.644531 143.890625 " fill-opacity="1" fill-rule="nonzero"/><path fill="#000000" d="M 133.796875 130.324219 L 133.796875 130.332031 C 133.859375 130.746094 134.28125 131.132812 134.703125 131.132812 C 135.109375 131.144531 135.550781 130.621094 135.515625 130.226562 C 135.367188 129.097656 133.804688 129.191406 133.796875 130.324219 Z M 133.796875 130.324219 " fill-opacity="1" fill-rule="nonzero"/><path fill="#000000" d="M 118.699219 186.160156 L 118.707031 186.160156 C 120.222656 185.914062 117.679688 184.300781 117.003906 184.609375 C 116.832031 184.710938 116.785156 184.929688 116.898438 185.089844 C 117.289062 185.738281 117.941406 186.144531 118.699219 186.160156 Z M 118.699219 186.160156 " fill-opacity="1" fill-rule="nonzero"/><path fill="#000000" d="M 141.886719 130.058594 L 141.886719 130.050781 C 141.902344 129.839844 141.804688 129.636719 141.660156 129.496094 C 141.414062 129.253906 141.019531 129.15625 140.722656 129.359375 C 139.441406 130.394531 141.648438 131.71875 141.886719 130.058594 Z M 141.886719 130.058594 " fill-opacity="1" fill-rule="nonzero"/><path fill="#000000" d="M 152.195312 128.257812 C 152.453125 128.253906 152.675781 128.0625 152.816406 127.859375 C 152.992188 127.574219 152.898438 127.203125 152.6875 126.964844 C 152.554688 126.8125 152.367188 126.71875 152.167969 126.71875 L 152.160156 126.71875 C 151.144531 126.710938 151.210938 128.238281 152.195312 128.257812 Z M 152.195312 128.257812 " fill-opacity="1" fill-rule="nonzero"/><path fill="#000000" d="M 247.402344 149.871094 C 247.761719 149.859375 248.066406 149.480469 248.050781 149.128906 L 248.050781 149.121094 C 247.96875 148.257812 246.9375 148.148438 246.667969 148.941406 C 246.542969 149.269531 246.742188 149.566406 247.027344 149.746094 C 247.144531 149.820312 247.273438 149.878906 247.402344 149.871094 Z M 247.402344 149.871094 " fill-opacity="1" fill-rule="nonzero"/><path fill="#000000" d="M 234.875 141.285156 C 235.023438 141.175781 235.148438 140.941406 235.152344 140.71875 L 235.152344 140.710938 C 235.09375 139.703125 233.675781 139.789062 233.710938 140.777344 C 233.769531 141.324219 234.445312 141.617188 234.875 141.285156 Z M 234.875 141.285156 " fill-opacity="1" fill-rule="nonzero"/><path fill="#000000" d="M 236.15625 144.722656 C 236.714844 144.761719 237.035156 144.007812 236.75 143.570312 C 236.65625 143.410156 236.421875 143.253906 236.183594 143.234375 L 236.179688 143.234375 C 235.238281 143.332031 235.246094 144.582031 236.15625 144.722656 Z M 236.15625 144.722656 " fill-opacity="1" fill-rule="nonzero"/><path fill="#000000" d="M 228.550781 146.199219 C 228.65625 146.152344 228.757812 146.074219 228.820312 145.984375 C 229 145.71875 228.941406 145.351562 228.75 145.105469 C 228.636719 144.960938 228.464844 144.84375 228.273438 144.835938 L 228.265625 144.835938 C 227.09375 144.886719 227.484375 146.671875 228.550781 146.199219 Z M 228.550781 146.199219 " fill-opacity="1" fill-rule="nonzero"/><path fill="#000000" d="M 262.433594 149.945312 C 262.804688 150.019531 263.207031 149.648438 263.207031 149.265625 L 263.207031 149.257812 C 263.226562 148.867188 262.929688 148.539062 262.554688 148.507812 C 262.269531 148.472656 261.984375 148.628906 261.863281 148.890625 C 261.621094 149.332031 261.96875 149.847656 262.433594 149.945312 Z M 262.433594 149.945312 " fill-opacity="1" fill-rule="nonzero"/><path fill="#000000" d="M 260.648438 157.226562 C 260.785156 157.105469 260.890625 156.902344 260.898438 156.6875 L 260.898438 156.679688 C 260.839844 155.582031 259.285156 155.875 259.550781 156.886719 C 259.691406 157.371094 260.265625 157.566406 260.648438 157.226562 Z M 260.648438 157.226562 " fill-opacity="1" fill-rule="nonzero"/><path fill="#000000" d="M 242.113281 146.84375 C 242.257812 146.738281 242.359375 146.527344 242.359375 146.324219 L 242.359375 146.316406 C 242.371094 145.304688 240.898438 145.375 241 146.382812 C 241.0625 146.917969 241.699219 147.164062 242.113281 146.84375 Z M 242.113281 146.84375 " fill-opacity="1" fill-rule="nonzero"/><path fill="#000000" d="M 131.367188 130.039062 L 131.367188 130.03125 C 131.367188 129.792969 131.019531 129.726562 130.949219 129.960938 C 130.855469 130.339844 131.367188 130.445312 131.367188 130.039062 Z M 131.367188 130.039062 " fill-opacity="1" fill-rule="nonzero"/><g transform="matrix(1, 0, 0, 1, 108, 215)"><g clip-path="url(#48f801ee51)"><g fill="#000000" fill-opacity="1"><g transform="translate(0.553208, 23.999021)"><g><path d="M 13 -16.109375 L 13 -12.953125 L 8.734375 -12.953125 L 8.734375 0 L 4.8125 0 L 4.8125 -12.953125 L 0.546875 -12.953125 L 0.546875 -16.109375 Z M 13 -16.109375 "/></g></g></g><g fill="#000000" fill-opacity="1"><g transform="translate(14.105673, 23.999021)"><g><path d="M 10.75 0 L 5.34375 -7.109375 L 5.34375 0 L 1.421875 0 L 1.421875 -16.109375 L 5.34375 -16.109375 L 5.34375 -9.03125 L 10.71875 -16.109375 L 15.328125 -16.109375 L 9.078125 -8.21875 L 15.546875 0 Z M 10.75 0 "/></g></g></g><g fill="#000000" fill-opacity="1"><g transform="translate(34.950333, 23.999021)"><g><path d="M 13 -16.109375 L 13 -12.953125 L 8.734375 -12.953125 L 8.734375 0 L 4.8125 0 L 4.8125 -12.953125 L 0.546875 -12.953125 L 0.546875 -16.109375 Z M 13 -16.109375 "/></g></g></g><g fill="#000000" fill-opacity="1"><g transform="translate(48.502798, 23.999021)"><g><path d="M 9.640625 0 L 6.28125 -6.078125 L 5.34375 -6.078125 L 5.34375 0 L 1.421875 0 L 1.421875 -16.109375 L 8 -16.109375 C 9.269531 -16.109375 10.351562 -15.882812 11.25 -15.4375 C 12.144531 -14.988281 12.8125 -14.378906 13.25 -13.609375 C 13.695312 -12.835938 13.921875 -11.976562 13.921875 -11.03125 C 13.921875 -9.957031 13.617188 -9 13.015625 -8.15625 C 12.410156 -7.320312 11.519531 -6.726562 10.34375 -6.375 L 14.0625 0 Z M 5.34375 -8.859375 L 7.78125 -8.859375 C 8.5 -8.859375 9.035156 -9.03125 9.390625 -9.375 C 9.753906 -9.726562 9.9375 -10.226562 9.9375 -10.875 C 9.9375 -11.488281 9.753906 -11.96875 9.390625 -12.3125 C 9.035156 -12.664062 8.5 -12.84375 7.78125 -12.84375 L 5.34375 -12.84375 Z M 5.34375 -8.859375 "/></g></g></g><g fill="#000000" fill-opacity="1"><g transform="translate(63.454082, 23.999021)"><g><path d="M 11.453125 -2.84375 L 5.4375 -2.84375 L 4.46875 0 L 0.359375 0 L 6.1875 -16.109375 L 10.734375 -16.109375 L 16.5625 0 L 12.40625 0 Z M 10.4375 -5.875 L 8.4375 -11.765625 L 6.46875 -5.875 Z M 10.4375 -5.875 "/></g></g></g><g fill="#000000" fill-opacity="1"><g transform="translate(80.354536, 23.999021)"><g><path d="M 15.828125 0 L 11.90625 0 L 5.34375 -9.9375 L 5.34375 0 L 1.421875 0 L 1.421875 -16.109375 L 5.34375 -16.109375 L 11.90625 -6.125 L 11.90625 -16.109375 L 15.828125 -16.109375 Z M 15.828125 0 "/></g></g></g><g fill="#000000" fill-opacity="1"><g transform="translate(97.598965, 23.999021)"><g><path d="M 13.6875 -10.921875 C 13.6875 -9.984375 13.472656 -9.128906 13.046875 -8.359375 C 12.617188 -7.585938 11.960938 -6.960938 11.078125 -6.484375 C 10.191406 -6.015625 9.09375 -5.78125 7.78125 -5.78125 L 5.34375 -5.78125 L 5.34375 0 L 1.421875 0 L 1.421875 -16.109375 L 7.78125 -16.109375 C 9.0625 -16.109375 10.144531 -15.882812 11.03125 -15.4375 C 11.914062 -14.988281 12.578125 -14.375 13.015625 -13.59375 C 13.460938 -12.820312 13.6875 -11.929688 13.6875 -10.921875 Z M 7.484375 -8.90625 C 8.234375 -8.90625 8.789062 -9.078125 9.15625 -9.421875 C 9.519531 -9.773438 9.703125 -10.273438 9.703125 -10.921875 C 9.703125 -11.554688 9.519531 -12.050781 9.15625 -12.40625 C 8.789062 -12.757812 8.234375 -12.9375 7.484375 -12.9375 L 5.34375 -12.9375 L 5.34375 -8.90625 Z M 7.484375 -8.90625 "/></g></g></g><g fill="#000000" fill-opacity="1"><g transform="translate(111.908172, 23.999021)"><g><path d="M 9.03125 0.15625 C 7.519531 0.15625 6.132812 -0.191406 4.875 -0.890625 C 3.613281 -1.597656 2.609375 -2.582031 1.859375 -3.84375 C 1.117188 -5.101562 0.75 -6.519531 0.75 -8.09375 C 0.75 -9.664062 1.117188 -11.078125 1.859375 -12.328125 C 2.609375 -13.585938 3.613281 -14.566406 4.875 -15.265625 C 6.132812 -15.972656 7.519531 -16.328125 9.03125 -16.328125 C 10.550781 -16.328125 11.941406 -15.972656 13.203125 -15.265625 C 14.460938 -14.566406 15.453125 -13.585938 16.171875 -12.328125 C 16.898438 -11.078125 17.265625 -9.664062 17.265625 -8.09375 C 17.265625 -6.519531 16.894531 -5.101562 16.15625 -3.84375 C 15.425781 -2.582031 14.4375 -1.597656 13.1875 -0.890625 C 11.9375 -0.191406 10.550781 0.15625 9.03125 0.15625 Z M 9.03125 -3.421875 C 10.320312 -3.421875 11.351562 -3.847656 12.125 -4.703125 C 12.894531 -5.554688 13.28125 -6.6875 13.28125 -8.09375 C 13.28125 -9.519531 12.894531 -10.65625 12.125 -11.5 C 11.351562 -12.351562 10.320312 -12.78125 9.03125 -12.78125 C 7.738281 -12.78125 6.703125 -12.359375 5.921875 -11.515625 C 5.148438 -10.671875 4.765625 -9.53125 4.765625 -8.09375 C 4.765625 -6.675781 5.148438 -5.539062 5.921875 -4.6875 C 6.703125 -3.84375 7.738281 -3.421875 9.03125 -3.421875 Z M 9.03125 -3.421875 "/></g></g></g><g fill="#000000" fill-opacity="1"><g transform="translate(129.932276, 23.999021)"><g><path d="M 9.640625 0 L 6.28125 -6.078125 L 5.34375 -6.078125 L 5.34375 0 L 1.421875 0 L 1.421875 -16.109375 L 8 -16.109375 C 9.269531 -16.109375 10.351562 -15.882812 11.25 -15.4375 C 12.144531 -14.988281 12.8125 -14.378906 13.25 -13.609375 C 13.695312 -12.835938 13.921875 -11.976562 13.921875 -11.03125 C 13.921875 -9.957031 13.617188 -9 13.015625 -8.15625 C 12.410156 -7.320312 11.519531 -6.726562 10.34375 -6.375 L 14.0625 0 Z M 5.34375 -8.859375 L 7.78125 -8.859375 C 8.5 -8.859375 9.035156 -9.03125 9.390625 -9.375 C 9.753906 -9.726562 9.9375 -10.226562 9.9375 -10.875 C 9.9375 -11.488281 9.753906 -11.96875 9.390625 -12.3125 C 9.035156 -12.664062 8.5 -12.84375 7.78125 -12.84375 L 5.34375 -12.84375 Z M 5.34375 -8.859375 "/></g></g></g><g fill="#000000" fill-opacity="1"><g transform="translate(144.883552, 23.999021)"><g><path d="M 13 -16.109375 L 13 -12.953125 L 8.734375 -12.953125 L 8.734375 0 L 4.8125 0 L 4.8125 -12.953125 L 0.546875 -12.953125 L 0.546875 -16.109375 Z M 13 -16.109375 "/></g></g></g></g></g><g transform="matrix(1, 0, 0, 1, 148, 245)"><g clip-path="url(#f5e24af7a3)"><g clip-path="url(#f24ad88a27)"><g fill="#000000" fill-opacity="1"><g transform="translate(1.167046, 7.822631)"><g><path d="M 3.25 -7.296875 C 4.0625 -7.296875 4.703125 -7.101562 5.171875 -6.71875 C 5.648438 -6.34375 5.90625 -5.816406 5.9375 -5.140625 L 5.03125 -5.09375 C 4.976562 -5.550781 4.8125 -5.890625 4.53125 -6.109375 C 4.25 -6.328125 3.832031 -6.4375 3.28125 -6.4375 C 2.757812 -6.4375 2.351562 -6.34375 2.0625 -6.15625 C 1.78125 -5.96875 1.640625 -5.707031 1.640625 -5.375 C 1.640625 -5.164062 1.703125 -4.984375 1.828125 -4.828125 C 1.953125 -4.679688 2.132812 -4.570312 2.375 -4.5 C 2.425781 -4.488281 2.617188 -4.429688 2.953125 -4.328125 C 3.296875 -4.222656 3.734375 -4.113281 4.265625 -4 C 4.890625 -3.863281 5.359375 -3.613281 5.671875 -3.25 C 5.992188 -2.894531 6.15625 -2.484375 6.15625 -2.015625 C 6.15625 -1.628906 6.046875 -1.269531 5.828125 -0.9375 C 5.617188 -0.613281 5.3125 -0.351562 4.90625 -0.15625 C 4.507812 0.03125 4.039062 0.125 3.5 0.125 C 2.863281 0.125 2.316406 0.0234375 1.859375 -0.171875 C 1.410156 -0.378906 1.066406 -0.664062 0.828125 -1.03125 C 0.585938 -1.394531 0.460938 -1.816406 0.453125 -2.296875 L 1.359375 -2.390625 C 1.390625 -1.816406 1.609375 -1.394531 2.015625 -1.125 C 2.429688 -0.863281 2.914062 -0.734375 3.46875 -0.734375 C 4.019531 -0.734375 4.453125 -0.84375 4.765625 -1.0625 C 5.085938 -1.289062 5.25 -1.601562 5.25 -2 C 5.25 -2.519531 4.820312 -2.882812 3.96875 -3.09375 L 3.421875 -3.234375 C 3.066406 -3.316406 2.664062 -3.425781 2.21875 -3.5625 C 1.75 -3.6875 1.382812 -3.90625 1.125 -4.21875 C 0.863281 -4.539062 0.734375 -4.90625 0.734375 -5.3125 C 0.734375 -5.6875 0.832031 -6.023438 1.03125 -6.328125 C 1.238281 -6.628906 1.53125 -6.863281 1.90625 -7.03125 C 2.28125 -7.207031 2.726562 -7.296875 3.25 -7.296875 Z M 3.25 -7.296875 "/></g></g></g></g><g clip-path="url(#62510b6fa9)"><g fill="#000000" fill-opacity="1"><g transform="translate(10.194384, 7.822631)"><g><path d="M 3.78125 -7.296875 C 4.488281 -7.296875 5.109375 -7.140625 5.640625 -6.828125 C 6.179688 -6.523438 6.597656 -6.09375 6.890625 -5.53125 C 7.179688 -4.96875 7.328125 -4.316406 7.328125 -3.578125 C 7.328125 -2.835938 7.175781 -2.1875 6.875 -1.625 C 6.582031 -1.070312 6.175781 -0.640625 5.65625 -0.328125 C 5.144531 -0.0234375 4.578125 0.125 3.953125 0.125 C 3.253906 0.125 2.640625 -0.0351562 2.109375 -0.359375 C 1.585938 -0.679688 1.179688 -1.117188 0.890625 -1.671875 C 0.609375 -2.222656 0.46875 -2.832031 0.46875 -3.5 C 0.46875 -4.257812 0.609375 -4.925781 0.890625 -5.5 C 1.179688 -6.070312 1.578125 -6.515625 2.078125 -6.828125 C 2.578125 -7.140625 3.144531 -7.296875 3.78125 -7.296875 Z M 1.453125 -3.46875 C 1.453125 -2.914062 1.554688 -2.425781 1.765625 -2 C 1.972656 -1.582031 2.257812 -1.257812 2.625 -1.03125 C 3 -0.800781 3.421875 -0.6875 3.890625 -0.6875 C 4.378906 -0.6875 4.804688 -0.800781 5.171875 -1.03125 C 5.546875 -1.257812 5.832031 -1.59375 6.03125 -2.03125 C 6.238281 -2.46875 6.34375 -2.984375 6.34375 -3.578125 C 6.34375 -4.160156 6.238281 -4.671875 6.03125 -5.109375 C 5.832031 -5.554688 5.550781 -5.894531 5.1875 -6.125 C 4.820312 -6.363281 4.40625 -6.484375 3.9375 -6.484375 C 3.144531 -6.484375 2.53125 -6.21875 2.09375 -5.6875 C 1.664062 -5.15625 1.453125 -4.414062 1.453125 -3.46875 Z M 1.453125 -3.46875 "/></g></g></g></g><g clip-path="url(#626b347bb7)"><g fill="#000000" fill-opacity="1"><g transform="translate(20.333694, 7.822631)"><g><path d="M 1.703125 -0.84375 L 5.234375 -0.84375 L 5.234375 0 L 0.75 0 L 0.75 -7.171875 L 1.703125 -7.171875 Z M 1.703125 -0.84375 "/></g></g></g></g><g clip-path="url(#2d8f5c3ae2)"><g fill="#000000" fill-opacity="1"><g transform="translate(28.249058, 7.822631)"><g><path d="M 1.75 -2.9375 C 1.75 -2.320312 1.8125 -1.878906 1.9375 -1.609375 C 2.070312 -1.347656 2.269531 -1.132812 2.53125 -0.96875 C 2.800781 -0.8125 3.144531 -0.734375 3.5625 -0.734375 C 4.144531 -0.734375 4.578125 -0.847656 4.859375 -1.078125 C 5.140625 -1.304688 5.3125 -1.566406 5.375 -1.859375 C 5.445312 -2.160156 5.484375 -2.515625 5.484375 -2.921875 L 5.484375 -7.171875 L 6.4375 -7.171875 L 6.4375 -2.9375 C 6.4375 -2.582031 6.410156 -2.234375 6.359375 -1.890625 C 6.316406 -1.554688 6.191406 -1.238281 5.984375 -0.9375 C 5.765625 -0.613281 5.46875 -0.351562 5.09375 -0.15625 C 4.71875 0.03125 4.222656 0.125 3.609375 0.125 C 3.023438 0.125 2.550781 0.0351562 2.1875 -0.140625 C 1.820312 -0.316406 1.519531 -0.554688 1.28125 -0.859375 C 1.070312 -1.128906 0.9375 -1.441406 0.875 -1.796875 C 0.820312 -2.160156 0.796875 -2.539062 0.796875 -2.9375 L 0.796875 -7.171875 L 1.75 -7.171875 Z M 1.75 -2.9375 "/></g></g></g></g><g clip-path="url(#24d85253ba)"><g fill="#000000" fill-opacity="1"><g transform="translate(37.827371, 7.822631)"><g><path d="M 5.90625 -6.328125 L 3.53125 -6.328125 L 3.53125 0 L 2.578125 0 L 2.578125 -6.328125 L 0.21875 -6.328125 L 0.21875 -7.171875 L 5.90625 -7.171875 Z M 5.90625 -6.328125 "/></g></g></g></g><g clip-path="url(#846eb259bb)"><g fill="#000000" fill-opacity="1"><g transform="translate(46.293712, 7.822631)"><g><path d="M 1.875 0 L 0.921875 0 L 0.921875 -7.171875 L 1.875 -7.171875 Z M 1.875 0 "/></g></g></g></g><g clip-path="url(#190819315e)"><g fill="#000000" fill-opacity="1"><g transform="translate(51.424134, 7.822631)"><g><path d="M 3.78125 -7.296875 C 4.488281 -7.296875 5.109375 -7.140625 5.640625 -6.828125 C 6.179688 -6.523438 6.597656 -6.09375 6.890625 -5.53125 C 7.179688 -4.96875 7.328125 -4.316406 7.328125 -3.578125 C 7.328125 -2.835938 7.175781 -2.1875 6.875 -1.625 C 6.582031 -1.070312 6.175781 -0.640625 5.65625 -0.328125 C 5.144531 -0.0234375 4.578125 0.125 3.953125 0.125 C 3.253906 0.125 2.640625 -0.0351562 2.109375 -0.359375 C 1.585938 -0.679688 1.179688 -1.117188 0.890625 -1.671875 C 0.609375 -2.222656 0.46875 -2.832031 0.46875 -3.5 C 0.46875 -4.257812 0.609375 -4.925781 0.890625 -5.5 C 1.179688 -6.070312 1.578125 -6.515625 2.078125 -6.828125 C 2.578125 -7.140625 3.144531 -7.296875 3.78125 -7.296875 Z M 1.453125 -3.46875 C 1.453125 -2.914062 1.554688 -2.425781 1.765625 -2 C 1.972656 -1.582031 2.257812 -1.257812 2.625 -1.03125 C 3 -0.800781 3.421875 -0.6875 3.890625 -0.6875 C 4.378906 -0.6875 4.804688 -0.800781 5.171875 -1.03125 C 5.546875 -1.257812 5.832031 -1.59375 6.03125 -2.03125 C 6.238281 -2.46875 6.34375 -2.984375 6.34375 -3.578125 C 6.34375 -4.160156 6.238281 -4.671875 6.03125 -5.109375 C 5.832031 -5.554688 5.550781 -5.894531 5.1875 -6.125 C 4.820312 -6.363281 4.40625 -6.484375 3.9375 -6.484375 C 3.144531 -6.484375 2.53125 -6.21875 2.09375 -5.6875 C 1.664062 -5.15625 1.453125 -4.414062 1.453125 -3.46875 Z M 1.453125 -3.46875 "/></g></g></g></g><g clip-path="url(#6145aab155)"><g fill="#000000" fill-opacity="1"><g transform="translate(61.563444, 7.822631)"><g><path d="M 5.53125 -1.546875 L 5.53125 -7.171875 L 6.4375 -7.171875 L 6.4375 0 L 5.46875 0 L 1.703125 -5.625 L 1.703125 0 L 0.796875 0 L 0.796875 -7.171875 L 1.765625 -7.171875 Z M 5.53125 -1.546875 "/></g></g></g></g><g clip-path="url(#e5cea54ae3)"><g fill="#000000" fill-opacity="1"><g transform="translate(71.141757, 7.822631)"><g><path d="M 3.25 -7.296875 C 4.0625 -7.296875 4.703125 -7.101562 5.171875 -6.71875 C 5.648438 -6.34375 5.90625 -5.816406 5.9375 -5.140625 L 5.03125 -5.09375 C 4.976562 -5.550781 4.8125 -5.890625 4.53125 -6.109375 C 4.25 -6.328125 3.832031 -6.4375 3.28125 -6.4375 C 2.757812 -6.4375 2.351562 -6.34375 2.0625 -6.15625 C 1.78125 -5.96875 1.640625 -5.707031 1.640625 -5.375 C 1.640625 -5.164062 1.703125 -4.984375 1.828125 -4.828125 C 1.953125 -4.679688 2.132812 -4.570312 2.375 -4.5 C 2.425781 -4.488281 2.617188 -4.429688 2.953125 -4.328125 C 3.296875 -4.222656 3.734375 -4.113281 4.265625 -4 C 4.890625 -3.863281 5.359375 -3.613281 5.671875 -3.25 C 5.992188 -2.894531 6.15625 -2.484375 6.15625 -2.015625 C 6.15625 -1.628906 6.046875 -1.269531 5.828125 -0.9375 C 5.617188 -0.613281 5.3125 -0.351562 4.90625 -0.15625 C 4.507812 0.03125 4.039062 0.125 3.5 0.125 C 2.863281 0.125 2.316406 0.0234375 1.859375 -0.171875 C 1.410156 -0.378906 1.066406 -0.664062 0.828125 -1.03125 C 0.585938 -1.394531 0.460938 -1.816406 0.453125 -2.296875 L 1.359375 -2.390625 C 1.390625 -1.816406 1.609375 -1.394531 2.015625 -1.125 C 2.429688 -0.863281 2.914062 -0.734375 3.46875 -0.734375 C 4.019531 -0.734375 4.453125 -0.84375 4.765625 -1.0625 C 5.085938 -1.289062 5.25 -1.601562 5.25 -2 C 5.25 -2.519531 4.820312 -2.882812 3.96875 -3.09375 L 3.421875 -3.234375 C 3.066406 -3.316406 2.664062 -3.425781 2.21875 -3.5625 C 1.75 -3.6875 1.382812 -3.90625 1.125 -4.21875 C 0.863281 -4.539062 0.734375 -4.90625 0.734375 -5.3125 C 0.734375 -5.6875 0.832031 -6.023438 1.03125 -6.328125 C 1.238281 -6.628906 1.53125 -6.863281 1.90625 -7.03125 C 2.28125 -7.207031 2.726562 -7.296875 3.25 -7.296875 Z M 3.25 -7.296875 "/></g></g></g></g></g></g></svg>